<svg xmlns:xlink="http://www.w3.org/1999/xlink" xmlns="http://www.w3.org/2000/svg" class="components-menu-svg" viewBox="0 0 576.206 157.976" fill="#ed145b" width="130"  height="60" ><title>Logotipo FIAP</title><path d="M164.733 3.17h11.35v152.805h-11.35z" fill="#ED145B"></path><path fill="none" d="M164.733 3.17h11.35v152.805h-11.35z"></path><path d="M44.387 76.298h55.408v10.478H44.387z" fill="#ED145B"></path><path fill="none" d="M44.387 76.298h55.408v10.478H44.387z"></path><path d="M2 3.17v152.806h11.35v-69.2h.015V76.297h-.014v-62.65h117.696V3.17" fill="#ED145B"></path><path fill="none" d="M2 3.17v152.806h11.35v-69.2h.015V76.297h-.014v-62.65h117.696V3.17"></path><path d="M517.45 2.58h-90.446v152.806h11.35V98.41h.083V87.935h-.082V13.06h78.223c27.505 0 46.277 12.66 46.277 36.89v.438c0 22.7-19.21 37.546-47.588 37.546H479.47V98.41h35.142c31.87 0 59.595-16.59 59.595-48.678v-.436c0-29.47-23.14-46.715-56.758-46.715" fill="#ED145B"></path><path fill="none" d="M517.45 2.58h-90.446v152.806h11.35V98.41h.083V87.935h-.082V13.06h78.223c27.505 0 46.277 12.66 46.277 36.89v.438c0 22.7-19.21 37.546-47.588 37.546H479.47V98.41h35.142c31.87 0 59.595-16.59 59.595-48.678v-.436c0-29.47-23.14-46.715-56.758-46.715"></path><path d="M360.968 87.935L307.978 2h-10.915l-94.387 153.897h11.788l87.84-141.453 45.786 73.49" fill="#ED145B"></path><path fill="none" d="M360.968 87.935L307.978 2h-10.915l-94.387 153.897h11.788l87.84-141.453 45.786 73.49"></path><path d="M378.403 116.21h-12.697l24.727 39.686h12.44" fill="#ED145B"></path><path fill="none" d="M378.403 116.21h-12.697l24.727 39.686h12.44"></path></svg>