<svg width="100%" height="100%" fill="none" xmlns="http://www.w3.org/2000/svg" viewBox="0 0 300 51" role="img" class="brand_root__ms4V_ topbar-header_brand__UQwNz"><title>Marca Jusbrasil</title><path fill-rule="evenodd" clip-rule="evenodd" d="M166.188 39.558c.021 3.963 3.008 5.944 8.957 5.944 1.256 0 2.39-.143 3.405-.43 1.013-.286 2.066-.847 3.156-1.683 1.09-.836 1.939-2.213 2.545-4.129.606-1.915.908-4.293.908-7.133 0-4.381-.837-7.562-2.511-9.544-1.675-1.981-4.386-2.973-8.131-2.973-2.799 0-5.575.562-8.329 1.685v18.263Zm-4.901-.274V2.678h4.901v13.707a25.798 25.798 0 0 1 8.329-1.377c1.546 0 3 .133 4.359.398 1.357.265 2.739.786 4.142 1.56a12.67 12.67 0 0 1 3.629 2.985c1.015 1.217 1.839 2.87 2.468 4.96.63 2.09.945 4.496.945 7.216 0 2.974-.348 5.58-1.044 7.816-.697 2.236-1.553 3.97-2.568 5.204a12.272 12.272 0 0 1-3.663 3.008c-1.426.77-2.74 1.267-3.944 1.486-1.205.22-2.437.331-3.696.331-2.453 0-4.586-.304-6.399-.91-1.812-.606-3.17-1.307-4.077-2.1a9.476 9.476 0 0 1-2.205-2.846c-.564-1.103-.9-2.014-1.01-2.73a13.599 13.599 0 0 1-.167-2.102ZM65.476 47.62v-5.099c2.582 1.81 5.364 2.716 8.344 2.716 3.067 0 5.28-.757 6.638-2.269 1.358-1.512 2.036-3.99 2.036-7.432V4.214h4.9v31.72c0 2.759-.386 5.115-1.158 7.069-.773 1.953-1.827 3.404-3.162 4.353-1.336.95-2.704 1.623-4.106 2.02-1.402.397-2.908.596-4.52.596-3.244 0-6.235-.783-8.972-2.35Zm31.7-12.416v-19.6h4.901v19.821c0 3.436.749 5.952 2.247 7.549 1.499 1.597 3.845 2.395 7.04 2.395 3.151 0 5.486-.798 7.007-2.395 1.52-1.597 2.281-4.113 2.281-7.549V15.604h4.899v19.6c0 4.702-1.235 8.34-3.706 10.91-2.47 2.572-5.964 3.858-10.481 3.858-4.517 0-8.011-1.286-10.482-3.858-2.47-2.57-3.705-6.208-3.705-10.91Zm38.13-17.332c-1.976 1.91-2.963 4.215-2.963 6.916 0 2.169.623 3.923 1.87 5.261 1.248 1.339 2.765 2.29 4.553 2.855a121.6 121.6 0 0 0 5.364 1.56c1.787.476 3.299 1.19 4.536 2.141 1.236.953 1.854 2.269 1.854 3.95 0 3.122-2.571 4.682-7.714 4.682-3.444 0-6.788-.996-10.033-2.988v5.173c3.068 1.7 6.479 2.549 10.231 2.549 3.886 0 6.925-.834 9.122-2.503 2.196-1.669 3.295-3.973 3.295-6.912 0-2.456-.625-4.476-1.871-6.058-1.248-1.583-2.765-2.705-4.553-3.37a58.91 58.91 0 0 0-5.364-1.708c-1.788-.477-3.3-1.075-4.536-1.793-1.236-.72-1.853-1.666-1.853-2.84 0-3.451 2.548-5.178 7.647-5.178 2.848 0 5.563.776 8.146 2.324v-4.87c-2.893-1.37-5.784-2.056-8.675-2.056-4.062 0-7.081.955-9.056 2.865Zm62.257.4v31.169h4.9V21.435c3.984-1.083 7.825-1.669 11.523-1.758v-4.603c-5.85 0-11.323 1.067-16.423 3.2Zm24.027 20.773c0 4.216 3.063 6.324 9.189 6.324h.099c5.992 0 8.989-2.042 8.989-6.127v-6.489c-1.498-.264-3.503-.396-6.015-.396-8.175 0-12.262 2.23-12.262 6.688Zm-4.899 0c0-1.521.28-2.885.844-4.09.562-1.205 1.252-2.184 2.069-2.933.816-.75 1.854-1.391 3.112-1.923 1.259-.532 2.372-.924 3.344-1.173.971-.25 2.125-.44 3.461-.57 1.334-.131 2.283-.207 2.847-.23a53.72 53.72 0 0 1 2.003-.032l5.43.323c0-3.072-.832-5.264-2.495-6.575-1.664-1.311-4.126-1.968-7.387-1.968-3.663 0-6.961.541-9.895 1.622v-4.735c3.331-1.168 6.718-1.754 10.159-1.754 4.74 0 8.356 1.198 10.846 3.593 2.492 2.395 3.738 5.899 3.738 10.512v10.164c0 2.164-.501 4.013-1.505 5.547-1.003 1.534-2.293 2.643-3.868 3.327-1.578.685-3.055 1.159-4.433 1.423a21.551 21.551 0 0 1-4.083.398c-1.04 0-2.106-.066-3.2-.199-1.094-.133-2.331-.437-3.712-.913-1.382-.477-2.58-1.085-3.596-1.827-1.017-.742-1.884-1.804-2.603-3.188-.718-1.384-1.076-2.983-1.076-4.799Zm36.865-21.173c-1.976 1.91-2.963 4.215-2.963 6.916 0 2.169.623 3.923 1.87 5.261 1.247 1.339 2.765 2.29 4.553 2.855a121.6 121.6 0 0 0 5.364 1.56c1.787.476 3.299 1.19 4.536 2.141 1.235.953 1.854 2.269 1.854 3.95 0 3.122-2.572 4.682-7.715 4.682-3.443 0-6.787-.996-10.032-2.988v5.173c3.068 1.7 6.478 2.549 10.23 2.549 3.885 0 6.926-.834 9.123-2.503 2.195-1.669 3.294-3.973 3.294-6.912 0-2.456-.624-4.476-1.871-6.058-1.247-1.583-2.765-2.705-4.552-3.37a58.91 58.91 0 0 0-5.364-1.708c-1.788-.477-3.3-1.075-4.536-1.793-1.236-.72-1.854-1.666-1.854-2.84 0-3.451 2.549-5.178 7.648-5.178 2.848 0 5.563.776 8.145 2.324v-4.87c-2.892-1.37-5.783-2.056-8.675-2.056-4.061 0-7.08.955-9.055 2.865Zm26.751 31.569h4.9V15.604h-4.9v33.838Zm-.265-39.797h5.43v-5.43h-5.43v5.43Zm19.865 39.797h-4.9V2.725h4.9v46.717Z" fill="#ffffff"></path><path fill-rule="evenodd" clip-rule="evenodd" d="M4.761 48.76C.826 46.495-.523 41.48 1.75 37.56L20.951 4.422C23.223.5 28.256-.843 32.192 1.42c3.936 2.265 5.285 7.28 3.012 11.201L16.003 45.758C13.73 49.68 8.697 51.023 4.76 48.76" fill="#FFCE00"></path><path fill-rule="evenodd" clip-rule="evenodd" d="M51.393 48.76c-3.936 2.263-8.968.92-11.241-3.002L20.95 12.622c-2.273-3.921-.924-8.936 3.011-11.2 3.937-2.265 8.97-.921 11.242 3L54.405 37.56c2.273 3.92.925 8.936-3.012 11.2Z" fill="#378CC8"></path><path fill-rule="evenodd" clip-rule="evenodd" d="M34.867 3.894c-.054-.08-.105-.16-.162-.237-.099-.134-.205-.26-.31-.386-.071-.085-.138-.172-.213-.254-.093-.103-.193-.198-.29-.295-.097-.097-.192-.195-.295-.288-.083-.075-.171-.142-.257-.214-.126-.104-.25-.21-.385-.307-.077-.057-.16-.108-.24-.163a8.356 8.356 0 0 0-.448-.289c-.09-.052-.183-.1-.275-.15a7.897 7.897 0 0 0-.436-.222c-.117-.055-.236-.103-.355-.152a7.99 7.99 0 0 0-.372-.145 8.94 8.94 0 0 0-1.21-.325 7.964 7.964 0 0 0-.773-.109A7.674 7.674 0 0 0 27.67.331c-.12.006-.238.016-.358.027-.15.014-.3.03-.45.053a8.566 8.566 0 0 0-.783.156 9.436 9.436 0 0 0-.75.225 8.333 8.333 0 0 0-.373.145c-.119.05-.237.097-.354.152a8.172 8.172 0 0 0-.437.223c-.091.05-.184.097-.274.149a8.54 8.54 0 0 0-.45.29c-.08.054-.16.105-.238.162-.134.098-.26.203-.386.308-.086.07-.173.139-.256.213-.103.093-.198.191-.295.288-.098.098-.198.192-.29.295-.075.082-.142.169-.213.254-.106.126-.212.252-.31.386-.057.077-.108.157-.162.237-.1.146-.2.294-.292.448a8.165 8.165 0 0 0-.046 8.272l7.126 12.299 7.127-12.299a8.167 8.167 0 0 0-.047-8.271 8.63 8.63 0 0 0-.292-.45" fill="#7AB441"></path></svg>