<?xml version="1.0" encoding="UTF-8" standalone="no"?>
<svg
   id="Camada_1"
   data-name="Camada 1"
   viewBox="0 0 1500.0033 607.10019"
   version="1.1"
   sodipodi:docname="apyb-dark.svg"
   inkscape:version="1.3 (0e150ed, 2023-07-21)"
   inkscape:export-filename="apyb-dark.png"
   inkscape:export-xdpi="96"
   inkscape:export-ydpi="96"
   width="1500.0033"
   height="607.10022"
   xmlns:inkscape="http://www.inkscape.org/namespaces/inkscape"
   xmlns:sodipodi="http://sodipodi.sourceforge.net/DTD/sodipodi-0.dtd"
   xmlns="http://www.w3.org/2000/svg"
   xmlns:svg="http://www.w3.org/2000/svg">
  <sodipodi:namedview
     id="namedview52"
     pagecolor="#ffffff"
     bordercolor="#000000"
     borderopacity="0.25"
     inkscape:showpageshadow="2"
     inkscape:pageopacity="0.0"
     inkscape:pagecheckerboard="0"
     inkscape:deskcolor="#d1d1d1"
     inkscape:zoom="0.38873971"
     inkscape:cx="792.30393"
     inkscape:cy="693.26594"
     inkscape:window-width="1512"
     inkscape:window-height="916"
     inkscape:window-x="0"
     inkscape:window-y="38"
     inkscape:window-maximized="1"
     inkscape:current-layer="Camada_1" />
  <defs
     id="defs1">
    <style
       id="style1">&#10;      .cls-1 {&#10;        fill: #fff;&#10;      }&#10;&#10;      .cls-1, .cls-2, .cls-3, .cls-4, .cls-5 {&#10;        stroke-width: 0px;&#10;      }&#10;&#10;      .cls-2 {&#10;        fill: #0056cd;&#10;      }&#10;&#10;      .cls-3 {&#10;        fill: #ffb93b;&#10;      }&#10;&#10;      .cls-4 {&#10;        fill: #00d0b7;&#10;      }&#10;&#10;      .cls-5 {&#10;        fill: #011224;&#10;      }&#10;    </style>
  </defs>
  <g
     id="g27"
     transform="translate(0.00188779,2.1117717e-4)">
    <path
       class="cls-1"
       d="m 65.58,1.18 h 277.67 c 3.96,0 7.16,3.21 7.16,7.16 v 414.83 c 0,3.97 -3.22,7.18 -7.19,7.16 l -141.08,-0.56 c -4.17,-0.02 -7.45,-3.58 -7.11,-7.74 l 5.52,-67.79 c 0.34,-4.17 -2.95,-7.74 -7.14,-7.74 h -71.1 c -3.57,0 -6.6,2.63 -7.09,6.17 l -9.99,71.52 c -0.49,3.54 -3.52,6.17 -7.09,6.17 H 7.16 c -4.35,0 -7.7,-3.85 -7.09,-8.16 L 58.48,7.34 C 58.98,3.81 62,1.18 65.57,1.18 Z m 86.02,87.56 -15.26,109 c -0.6,4.31 2.74,8.15 7.09,8.15 h 62.23 c 3.73,0 6.84,-2.87 7.14,-6.59 l 8.72,-109 c 0.33,-4.17 -2.96,-7.73 -7.14,-7.73 h -55.69 c -3.57,0 -6.6,2.63 -7.09,6.17 z"
       id="path1" />
    <path
       class="cls-1"
       d="m 392.09,1.18 h 333 c 4.13,0 7.4,3.48 7.15,7.61 l -19.46,312.49 c -0.24,3.78 -3.37,6.72 -7.15,6.72 H 508.02 c -3.96,0 -7.16,3.21 -7.16,7.16 v 88.04 c 0,3.96 -3.21,7.16 -7.16,7.16 H 392.1 c -3.96,0 -7.16,-3.21 -7.16,-7.16 V 8.34 c 0,-3.96 3.21,-7.16 7.16,-7.16 z m 108.77,65.13 v 136.75 c 0,3.96 3.21,7.16 7.16,7.16 h 63.77 c 3.8,0 6.93,-2.96 7.15,-6.75 l 7.81,-136.75 c 0.23,-4.11 -3.03,-7.57 -7.15,-7.57 h -71.58 c -3.96,0 -7.16,3.21 -7.16,7.16 z"
       id="path2" />
    <path
       class="cls-1"
       d="m 1004.45,1.11 103.12,-1.08 c 4.29,-0.04 7.66,3.67 7.19,7.94 l -45.3,416.62 c -0.4,3.63 -3.46,6.39 -7.12,6.39 H 797.51 c -3.83,0 -6.98,-3.01 -7.15,-6.84 l -3.05,-67.05 c -0.19,-4.09 3.09,-7.5 7.18,-7.49 l 171.4,0.57 c 3.77,0.01 6.9,-2.89 7.17,-6.65 l 3.28,-45.86 c 0.3,-4.23 -3.11,-7.79 -7.35,-7.67 l -179.34,5.12 c -3.89,0.11 -7.15,-2.9 -7.36,-6.78 L 767.63,8.66 c -0.21,-4.07 3.01,-7.5 7.09,-7.54 L 915.49,0 c 3.95,-0.03 7.18,3.14 7.22,7.08 l 2.31,214.55 c 0.04,3.92 3.24,7.08 7.16,7.08 h 42.37 c 3.75,0 6.87,-2.9 7.14,-6.64 L 997.37,7.74 c 0.27,-3.71 3.34,-6.6 7.07,-6.64 z"
       id="path3" />
    <path
       class="cls-1"
       d="m 1489.66,236.21 10.33,185.98 c 0.23,4.1 -3.03,7.55 -7.14,7.56 l -335.52,0.59 c -3.96,0 -7.17,-3.2 -7.17,-7.16 V 8.94 c 0,-3.95 3.2,-7.15 7.15,-7.16 l 279.72,-0.59 c 3.75,0 6.87,2.88 7.16,6.62 l 11.32,148.92 c 0.28,3.73 -2.36,7.06 -6.06,7.62 l -75.98,11.61 c -3.57,0.55 -6.18,3.67 -6.08,7.28 l 0.87,31.01 c 0.1,3.66 2.96,6.66 6.61,6.94 l 108.17,8.28 c 3.58,0.27 6.4,3.16 6.6,6.74 z m -241.99,-98.99 59.26,-1.99 c 3.99,-0.13 7.1,-3.51 6.91,-7.49 l -1.81,-38.56 c -0.18,-3.73 -3.19,-6.7 -6.92,-6.82 l -60.65,-1.99 c -4.26,-0.14 -7.7,3.45 -7.38,7.7 l 3.2,42.54 c 0.29,3.83 3.54,6.75 7.38,6.62 z m 63.99,96.12 -54.7,-2.44 c -4.09,-0.18 -7.51,3.1 -7.48,7.2 l 0.53,88.33 c 0.02,3.94 3.22,7.12 7.16,7.12 h 54.17 c 3.96,0 7.16,-3.21 7.16,-7.16 v -85.88 c 0,-3.83 -3.01,-6.98 -6.84,-7.15 z"
       id="path4" />
    <g
       id="g26">
      <path
         class="cls-3"
         d="m 82.43,581 c -1.19,-3.48 -2.42,-6.91 -3.7,-10.31 -1.28,-3.39 -2.51,-6.87 -3.7,-10.44 H 37.77 c -1.19,3.56 -2.4,7.06 -3.64,10.5 -1.23,3.44 -2.45,6.85 -3.64,10.25 H 13.82 c 3.31,-9.42 6.44,-18.11 9.41,-26.09 2.97,-7.98 5.87,-15.53 8.71,-22.66 2.84,-7.13 5.66,-13.91 8.46,-20.36 2.8,-6.45 5.68,-12.81 8.65,-19.09 h 15.31 c 2.97,6.28 5.85,12.64 8.65,19.09 2.8,6.45 5.62,13.24 8.46,20.36 2.84,7.13 5.77,14.68 8.78,22.66 3.01,7.98 6.17,16.67 9.48,26.09 H 82.42 Z M 56.4,509.85 c -1.95,4.5 -4.18,9.97 -6.68,16.42 -2.5,6.45 -5.11,13.45 -7.83,21 h 29.02 c -2.72,-7.55 -5.35,-14.59 -7.89,-21.13 -2.55,-6.53 -4.75,-11.96 -6.62,-16.29 z"
         id="path5" />
      <path
         class="cls-3"
         d="m 128.12,569.93 c 4.07,0 7.04,-0.49 8.91,-1.46 1.87,-0.97 2.8,-2.65 2.8,-5.03 0,-2.21 -1,-4.03 -2.99,-5.47 -1.99,-1.44 -5.28,-3.01 -9.86,-4.71 -2.8,-1.02 -5.37,-2.1 -7.7,-3.25 -2.33,-1.15 -4.35,-2.48 -6.05,-4.01 -1.7,-1.53 -3.03,-3.37 -4.01,-5.54 -0.98,-2.16 -1.46,-4.82 -1.46,-7.95 0,-6.11 2.25,-10.92 6.75,-14.45 4.5,-3.52 10.61,-5.28 18.33,-5.28 3.9,0 7.64,0.36 11.2,1.08 3.56,0.72 6.24,1.42 8.02,2.1 l -2.8,12.47 c -1.7,-0.76 -3.86,-1.46 -6.49,-2.1 -2.63,-0.64 -5.69,-0.95 -9.16,-0.95 -3.14,0 -5.69,0.53 -7.64,1.59 -1.95,1.06 -2.93,2.7 -2.93,4.9 0,1.1 0.19,2.08 0.57,2.93 0.38,0.85 1.04,1.63 1.97,2.35 0.93,0.72 2.16,1.44 3.69,2.16 1.53,0.72 3.39,1.46 5.6,2.23 3.65,1.36 6.75,2.7 9.29,4.01 2.55,1.32 4.65,2.8 6.3,4.45 1.65,1.65 2.86,3.54 3.63,5.66 0.76,2.12 1.15,4.67 1.15,7.64 0,6.36 -2.35,11.18 -7.06,14.45 -4.71,3.26 -11.43,4.9 -20.17,4.9 -5.85,0 -10.56,-0.49 -14.13,-1.46 -3.56,-0.97 -6.07,-1.76 -7.51,-2.35 l 2.67,-12.85 c 2.29,0.94 5.03,1.83 8.21,2.67 3.18,0.85 6.81,1.27 10.88,1.27 z"
         id="path6" />
      <path
         class="cls-3"
         d="m 186.28,569.93 c 4.07,0 7.04,-0.49 8.91,-1.46 1.87,-0.97 2.8,-2.65 2.8,-5.03 0,-2.21 -1,-4.03 -2.99,-5.47 -1.99,-1.44 -5.28,-3.01 -9.86,-4.71 -2.8,-1.02 -5.37,-2.1 -7.7,-3.25 -2.33,-1.15 -4.35,-2.48 -6.05,-4.01 -1.7,-1.53 -3.03,-3.37 -4.01,-5.54 -0.98,-2.16 -1.46,-4.82 -1.46,-7.95 0,-6.11 2.25,-10.92 6.75,-14.45 4.5,-3.52 10.61,-5.28 18.33,-5.28 3.9,0 7.64,0.36 11.2,1.08 3.56,0.72 6.24,1.42 8.02,2.1 l -2.8,12.47 c -1.7,-0.76 -3.86,-1.46 -6.49,-2.1 -2.63,-0.64 -5.69,-0.95 -9.16,-0.95 -3.14,0 -5.69,0.53 -7.64,1.59 -1.95,1.06 -2.93,2.7 -2.93,4.9 0,1.1 0.19,2.08 0.57,2.93 0.38,0.85 1.04,1.63 1.97,2.35 0.93,0.72 2.16,1.44 3.69,2.16 1.53,0.72 3.39,1.46 5.6,2.23 3.65,1.36 6.75,2.7 9.29,4.01 2.55,1.32 4.65,2.8 6.3,4.45 1.65,1.65 2.86,3.54 3.63,5.66 0.76,2.12 1.15,4.67 1.15,7.64 0,6.36 -2.35,11.18 -7.06,14.45 -4.71,3.26 -11.43,4.9 -20.17,4.9 -5.85,0 -10.56,-0.49 -14.13,-1.46 -3.56,-0.97 -6.07,-1.76 -7.51,-2.35 l 2.67,-12.85 c 2.29,0.94 5.03,1.83 8.21,2.67 3.18,0.85 6.81,1.27 10.88,1.27 z"
         id="path7" />
      <path
         class="cls-3"
         d="m 287.97,547.66 c 0,5.26 -0.76,10.06 -2.29,14.38 -1.53,4.33 -3.69,8.02 -6.49,11.07 -2.8,3.06 -6.17,5.43 -10.12,7.13 -3.95,1.7 -8.29,2.54 -13.05,2.54 -4.76,0 -9.08,-0.85 -12.98,-2.54 -3.9,-1.7 -7.26,-4.07 -10.05,-7.13 -2.8,-3.05 -4.99,-6.74 -6.55,-11.07 -1.57,-4.33 -2.35,-9.12 -2.35,-14.38 0,-5.26 0.78,-10.03 2.35,-14.32 1.57,-4.28 3.77,-7.95 6.62,-11.01 2.84,-3.05 6.21,-5.41 10.12,-7.06 3.9,-1.65 8.19,-2.48 12.85,-2.48 4.66,0 8.97,0.83 12.92,2.48 3.95,1.66 7.32,4.01 10.12,7.06 2.8,3.05 4.98,6.73 6.55,11.01 1.57,4.29 2.35,9.06 2.35,14.32 z m -15.78,0 c 0,-6.62 -1.42,-11.86 -4.26,-15.72 -2.84,-3.86 -6.81,-5.79 -11.9,-5.79 -5.09,0 -9.06,1.93 -11.9,5.79 -2.84,3.86 -4.26,9.1 -4.26,15.72 0,6.62 1.42,12.01 4.26,15.91 2.84,3.9 6.81,5.86 11.9,5.86 5.09,0 9.06,-1.95 11.9,-5.86 2.84,-3.9 4.26,-9.2 4.26,-15.91 z"
         id="path8" />
      <path
         class="cls-3"
         d="m 300.19,547.78 c 0,-4.92 0.76,-9.52 2.29,-13.81 1.53,-4.28 3.71,-8 6.55,-11.14 2.84,-3.14 6.3,-5.6 10.37,-7.38 4.07,-1.78 8.65,-2.67 13.75,-2.67 6.28,0 12.22,1.15 17.82,3.44 l -3.31,12.6 c -1.78,-0.76 -3.8,-1.4 -6.05,-1.91 -2.25,-0.51 -4.65,-0.76 -7.19,-0.76 -6.03,0 -10.61,1.89 -13.75,5.66 -3.14,3.78 -4.71,9.1 -4.71,15.97 0,6.87 1.48,11.86 4.45,15.72 2.97,3.86 7.97,5.79 15.02,5.79 2.63,0 5.22,-0.25 7.76,-0.76 2.55,-0.51 4.75,-1.15 6.62,-1.91 l 2.16,12.73 c -1.7,0.85 -4.26,1.61 -7.7,2.29 -3.44,0.68 -6.98,1.02 -10.63,1.02 -5.69,0 -10.63,-0.87 -14.83,-2.61 -4.2,-1.74 -7.68,-4.16 -10.44,-7.25 -2.76,-3.1 -4.82,-6.79 -6.17,-11.07 -1.36,-4.28 -2.04,-8.93 -2.04,-13.94 z"
         id="path9" />
      <path
         class="cls-3"
         d="m 381.14,494.96 c 0,2.89 -0.93,5.18 -2.8,6.87 -1.87,1.7 -4.07,2.54 -6.62,2.54 -2.55,0 -4.88,-0.85 -6.75,-2.54 -1.87,-1.7 -2.8,-3.99 -2.8,-6.87 0,-2.88 0.93,-5.3 2.8,-7 1.87,-1.7 4.11,-2.55 6.75,-2.55 2.64,0 4.75,0.85 6.62,2.55 1.87,1.7 2.8,4.03 2.8,7 z M 379.49,581 h -15.4 v -66.57 h 15.4 z"
         id="path10" />
      <path
         class="cls-3"
         d="m 421.23,512.78 c 5.09,0 9.37,0.64 12.85,1.91 3.48,1.27 6.26,3.05 8.34,5.34 2.08,2.29 3.56,5.07 4.45,8.34 0.89,3.27 1.34,6.85 1.34,10.75 v 40.35 c -2.38,0.51 -5.96,1.13 -10.75,1.85 -4.79,0.72 -10.2,1.08 -16.23,1.08 -3.99,0 -7.64,-0.38 -10.95,-1.15 -3.31,-0.76 -6.13,-1.99 -8.46,-3.69 -2.33,-1.7 -4.16,-3.9 -5.47,-6.62 -1.32,-2.71 -1.97,-6.07 -1.97,-10.05 0,-3.98 0.74,-7.04 2.23,-9.67 1.48,-2.63 3.5,-4.77 6.05,-6.43 2.55,-1.66 5.49,-2.84 8.85,-3.56 3.35,-0.72 6.85,-1.08 10.5,-1.08 1.7,0 3.48,0.11 5.35,0.32 1.87,0.21 3.86,0.57 5.98,1.08 v -2.54 c 0,-1.78 -0.21,-3.48 -0.64,-5.09 -0.43,-1.61 -1.17,-3.03 -2.23,-4.26 -1.06,-1.23 -2.46,-2.18 -4.2,-2.86 -1.74,-0.68 -3.93,-1.02 -6.55,-1.02 -3.56,0 -6.83,0.25 -9.8,0.76 -2.97,0.51 -5.39,1.1 -7.25,1.78 l -1.91,-12.47 c 1.95,-0.68 4.79,-1.36 8.53,-2.04 3.73,-0.68 7.72,-1.02 11.96,-1.02 z m 1.27,57.4 c 4.75,0 8.36,-0.25 10.82,-0.76 v -17.06 c -0.85,-0.25 -2.08,-0.51 -3.69,-0.76 -1.61,-0.25 -3.39,-0.38 -5.35,-0.38 -1.7,0 -3.42,0.13 -5.15,0.38 -1.74,0.25 -3.31,0.72 -4.71,1.4 -1.4,0.68 -2.53,1.64 -3.37,2.86 -0.85,1.23 -1.27,2.78 -1.27,4.65 0,3.65 1.15,6.17 3.44,7.57 2.29,1.4 5.39,2.1 9.29,2.1 z"
         id="path11" />
      <path
         class="cls-3"
         d="m 497.59,585.97 c 2.71,1.27 4.6,2.71 5.66,4.33 1.06,1.61 1.59,3.61 1.59,5.98 0,2.97 -1.27,5.51 -3.82,7.64 -2.55,2.12 -6.36,3.18 -11.45,3.18 -4.07,0 -7.68,-0.55 -10.82,-1.65 l 1.78,-9.16 c 0.85,0.25 1.95,0.55 3.31,0.89 1.36,0.34 2.76,0.51 4.2,0.51 1.44,0 2.57,-0.25 3.37,-0.76 0.81,-0.51 1.21,-1.27 1.21,-2.29 0,-1.36 -0.59,-2.35 -1.78,-2.99 -1.19,-0.64 -2.38,-1.17 -3.56,-1.59 l -1.27,-0.38 c 0.34,-1.1 0.81,-2.35 1.4,-3.75 0.59,-1.4 1.19,-2.7 1.78,-3.88 -4.41,-0.76 -8.23,-2.12 -11.46,-4.07 -3.23,-1.95 -5.9,-4.43 -8.02,-7.45 -2.12,-3.01 -3.71,-6.43 -4.77,-10.24 -1.06,-3.82 -1.59,-7.98 -1.59,-12.47 0,-4.92 0.76,-9.52 2.29,-13.81 1.53,-4.28 3.71,-8 6.55,-11.14 2.84,-3.14 6.3,-5.6 10.37,-7.38 4.07,-1.78 8.65,-2.67 13.75,-2.67 6.28,0 12.22,1.15 17.82,3.44 l -3.31,12.6 c -1.78,-0.76 -3.8,-1.4 -6.05,-1.91 -2.25,-0.51 -4.65,-0.76 -7.19,-0.76 -6.03,0 -10.61,1.89 -13.75,5.66 -3.14,3.78 -4.71,9.1 -4.71,15.97 0,6.87 1.48,11.86 4.45,15.72 2.97,3.86 7.97,5.79 15.02,5.79 2.63,0 5.22,-0.25 7.76,-0.76 2.55,-0.51 4.75,-1.15 6.62,-1.91 l 2.16,12.73 c -1.53,0.76 -3.78,1.44 -6.75,2.04 -2.97,0.59 -6.07,0.97 -9.29,1.15 -0.34,0.68 -0.64,1.31 -0.89,1.91 -0.25,0.59 -0.47,1.1 -0.64,1.53 z"
         id="path12" />
      <path
         class="cls-3"
         d="m 549.26,512.78 c 5.09,0 9.37,0.64 12.85,1.91 3.48,1.27 6.26,3.05 8.34,5.34 2.08,2.29 3.56,5.07 4.45,8.34 0.89,3.27 1.34,6.85 1.34,10.75 v 40.35 c -2.38,0.51 -5.96,1.13 -10.75,1.85 -4.79,0.72 -10.2,1.08 -16.23,1.08 -3.99,0 -7.64,-0.38 -10.95,-1.15 -3.31,-0.76 -6.13,-1.99 -8.46,-3.69 -2.33,-1.7 -4.16,-3.9 -5.47,-6.62 -1.32,-2.71 -1.97,-6.07 -1.97,-10.05 0,-3.98 0.74,-7.04 2.23,-9.67 1.48,-2.63 3.5,-4.77 6.05,-6.43 2.55,-1.66 5.49,-2.84 8.85,-3.56 3.35,-0.72 6.85,-1.08 10.5,-1.08 1.7,0 3.48,0.11 5.35,0.32 1.87,0.21 3.86,0.57 5.98,1.08 v -2.54 c 0,-1.78 -0.21,-3.48 -0.64,-5.09 -0.43,-1.61 -1.17,-3.03 -2.23,-4.26 -1.06,-1.23 -2.46,-2.18 -4.2,-2.86 -1.74,-0.68 -3.93,-1.02 -6.55,-1.02 -3.56,0 -6.83,0.25 -9.8,0.76 -2.97,0.51 -5.39,1.1 -7.25,1.78 l -1.91,-12.47 c 1.95,-0.68 4.79,-1.36 8.53,-2.04 3.73,-0.68 7.72,-1.02 11.96,-1.02 z m 22.46,-18.26 c -0.81,1.4 -1.8,2.72 -2.99,3.95 -1.19,1.23 -2.55,2.27 -4.07,3.12 -1.53,0.85 -3.23,1.27 -5.09,1.27 -1.53,0 -2.97,-0.23 -4.33,-0.7 -1.36,-0.47 -2.69,-1 -4.01,-1.59 -1.32,-0.59 -2.59,-1.12 -3.82,-1.59 -1.23,-0.47 -2.44,-0.7 -3.63,-0.7 -1.61,0 -2.99,0.55 -4.14,1.65 -1.15,1.1 -2.06,2.38 -2.74,3.82 l -7.76,-4.58 c 0.42,-1.19 1.04,-2.48 1.85,-3.88 0.81,-1.4 1.82,-2.71 3.05,-3.95 1.23,-1.23 2.61,-2.27 4.14,-3.12 1.53,-0.85 3.22,-1.27 5.09,-1.27 1.53,0 2.97,0.25 4.33,0.76 1.36,0.51 2.69,1.04 4.01,1.59 1.31,0.55 2.59,1.08 3.82,1.59 1.23,0.51 2.44,0.76 3.63,0.76 1.61,0 2.99,-0.57 4.14,-1.72 1.15,-1.15 2.06,-2.44 2.74,-3.88 l 7.76,4.58 c -0.51,1.19 -1.17,2.48 -1.97,3.88 z m -21.19,75.67 c 4.75,0 8.36,-0.25 10.82,-0.76 v -17.06 c -0.85,-0.25 -2.08,-0.51 -3.69,-0.76 -1.61,-0.25 -3.39,-0.38 -5.35,-0.38 -1.7,0 -3.42,0.13 -5.15,0.38 -1.74,0.25 -3.31,0.72 -4.71,1.4 -1.4,0.68 -2.53,1.64 -3.37,2.86 -0.85,1.23 -1.27,2.78 -1.27,4.65 0,3.65 1.15,6.17 3.44,7.57 2.29,1.4 5.39,2.1 9.29,2.1 z"
         id="path13" />
      <path
         class="cls-3"
         d="m 655.28,547.66 c 0,5.26 -0.76,10.06 -2.29,14.38 -1.53,4.33 -3.69,8.02 -6.49,11.07 -2.8,3.06 -6.17,5.43 -10.12,7.13 -3.95,1.7 -8.29,2.54 -13.05,2.54 -4.76,0 -9.08,-0.85 -12.98,-2.54 -3.9,-1.7 -7.26,-4.07 -10.05,-7.13 -2.8,-3.05 -4.99,-6.74 -6.55,-11.07 -1.57,-4.33 -2.35,-9.12 -2.35,-14.38 0,-5.26 0.78,-10.03 2.35,-14.32 1.57,-4.28 3.77,-7.95 6.62,-11.01 2.84,-3.05 6.21,-5.41 10.12,-7.06 3.9,-1.65 8.19,-2.48 12.85,-2.48 4.66,0 8.97,0.83 12.92,2.48 3.95,1.66 7.32,4.01 10.12,7.06 2.8,3.05 4.98,6.73 6.55,11.01 1.57,4.29 2.35,9.06 2.35,14.32 z m -15.78,0 c 0,-6.62 -1.42,-11.86 -4.26,-15.72 -2.84,-3.86 -6.81,-5.79 -11.9,-5.79 -5.09,0 -9.06,1.93 -11.9,5.79 -2.84,3.86 -4.26,9.1 -4.26,15.72 0,6.62 1.42,12.01 4.26,15.91 2.84,3.9 6.81,5.86 11.9,5.86 5.09,0 9.06,-1.95 11.9,-5.86 2.84,-3.9 4.26,-9.2 4.26,-15.91 z"
         id="path14" />
      <path
         class="cls-3"
         d="m 726.56,491.91 c 12.81,0 22.63,2.33 29.46,7 6.83,4.67 10.25,11.96 10.25,21.89 0,5.18 -0.91,9.61 -2.74,13.3 -1.83,3.69 -4.48,6.7 -7.95,9.04 -3.48,2.33 -7.72,4.05 -12.73,5.16 -5.01,1.1 -10.73,1.65 -17.18,1.65 h -8.02 v 31.06 h -16.04 v -86.93 c 3.73,-0.85 7.87,-1.42 12.41,-1.72 4.54,-0.3 8.72,-0.45 12.54,-0.45 z m 1.15,13.87 c -4.07,0 -7.43,0.13 -10.05,0.38 v 30.04 h 7.76 c 7.72,0 13.66,-1.08 17.82,-3.25 4.16,-2.16 6.24,-6.26 6.24,-12.28 0,-2.88 -0.55,-5.3 -1.65,-7.25 -1.1,-1.95 -2.63,-3.48 -4.58,-4.58 -1.95,-1.1 -4.26,-1.89 -6.94,-2.35 -2.67,-0.47 -5.54,-0.7 -8.59,-0.7 z"
         id="path15" />
      <path
         class="cls-3"
         d="m 835.63,514.44 c -6.86,25.29 -14.82,48.2 -23.88,68.73 -1.7,3.82 -3.44,7.08 -5.22,9.8 -1.78,2.71 -3.78,4.96 -5.99,6.74 -2.21,1.78 -4.67,3.08 -7.39,3.88 -2.72,0.81 -5.86,1.21 -9.43,1.21 -2.38,0 -4.74,-0.25 -7.07,-0.76 -2.34,-0.51 -4.1,-1.06 -5.29,-1.65 l 2.8,-12.35 c 3.07,1.19 6.1,1.78 9.08,1.78 4,0 7.14,-0.95 9.4,-2.86 2.26,-1.91 4.24,-4.86 5.95,-8.85 -4.86,-9.33 -9.52,-19.52 -14,-30.55 -4.47,-11.03 -8.46,-22.74 -11.95,-35.13 h 16.42 c 0.85,3.56 1.89,7.43 3.13,11.58 1.24,4.16 2.58,8.38 4.03,12.66 1.45,4.29 2.98,8.55 4.6,12.79 1.62,4.24 3.24,8.19 4.86,11.84 2.7,-7.55 5.24,-15.59 7.6,-24.12 2.36,-8.53 4.52,-16.78 6.46,-24.75 h 15.91 z"
         id="path16" />
      <path
         class="cls-3"
         d="m 846.57,496.87 15.4,-2.54 v 20.11 h 23.67 v 12.85 h -23.67 v 27.11 c 0,5.35 0.85,9.16 2.55,11.45 1.7,2.29 4.58,3.44 8.65,3.44 2.8,0 5.28,-0.3 7.45,-0.89 2.16,-0.59 3.88,-1.15 5.15,-1.66 l 2.55,12.22 c -1.78,0.76 -4.12,1.55 -7,2.35 -2.89,0.81 -6.28,1.21 -10.18,1.21 -4.75,0 -8.72,-0.64 -11.9,-1.91 -3.18,-1.27 -5.71,-3.12 -7.57,-5.54 -1.87,-2.42 -3.18,-5.35 -3.95,-8.78 -0.76,-3.44 -1.15,-7.36 -1.15,-11.77 v -57.66 z"
         id="path17" />
      <path
         class="cls-3"
         d="m 900.54,581 v -96.22 l 15.4,-2.55 v 32.96 c 1.7,-0.59 3.67,-1.1 5.92,-1.53 2.25,-0.42 4.47,-0.64 6.68,-0.64 5.35,0 9.78,0.74 13.3,2.23 3.52,1.49 6.34,3.56 8.46,6.24 2.12,2.67 3.63,5.88 4.52,9.61 0.89,3.73 1.34,7.89 1.34,12.47 v 37.42 h -15.4 v -35 c 0,-3.56 -0.23,-6.6 -0.7,-9.1 -0.47,-2.5 -1.23,-4.54 -2.29,-6.11 -1.06,-1.57 -2.48,-2.71 -4.26,-3.44 -1.78,-0.72 -3.99,-1.08 -6.62,-1.08 -2.04,0 -4.12,0.21 -6.24,0.64 -2.12,0.43 -3.69,0.81 -4.71,1.15 V 581 Z"
         id="path18" />
      <path
         class="cls-3"
         d="m 1034.81,547.66 c 0,5.26 -0.76,10.06 -2.29,14.38 -1.53,4.33 -3.69,8.02 -6.49,11.07 -2.8,3.06 -6.17,5.43 -10.12,7.13 -3.95,1.7 -8.29,2.54 -13.05,2.54 -4.76,0 -9.08,-0.85 -12.98,-2.54 -3.9,-1.7 -7.26,-4.07 -10.05,-7.13 -2.8,-3.05 -4.99,-6.74 -6.55,-11.07 -1.57,-4.33 -2.35,-9.12 -2.35,-14.38 0,-5.26 0.78,-10.03 2.35,-14.32 1.57,-4.28 3.77,-7.95 6.62,-11.01 2.84,-3.05 6.21,-5.41 10.12,-7.06 3.9,-1.65 8.19,-2.48 12.85,-2.48 4.66,0 8.97,0.83 12.92,2.48 3.95,1.66 7.32,4.01 10.12,7.06 2.8,3.05 4.98,6.73 6.55,11.01 1.57,4.29 2.35,9.06 2.35,14.32 z m -15.78,0 c 0,-6.62 -1.42,-11.86 -4.26,-15.72 -2.84,-3.86 -6.81,-5.79 -11.9,-5.79 -5.09,0 -9.06,1.93 -11.9,5.79 -2.84,3.86 -4.26,9.1 -4.26,15.72 0,6.62 1.42,12.01 4.26,15.91 2.84,3.9 6.81,5.86 11.9,5.86 5.09,0 9.06,-1.95 11.9,-5.86 2.84,-3.9 4.26,-9.2 4.26,-15.91 z"
         id="path19" />
      <path
         class="cls-3"
         d="m 1050.72,516.6 c 2.97,-0.85 6.83,-1.66 11.58,-2.42 4.75,-0.76 10.01,-1.15 15.78,-1.15 5.43,0 9.97,0.74 13.62,2.23 3.65,1.49 6.55,3.56 8.72,6.24 2.16,2.67 3.69,5.9 4.58,9.67 0.89,3.78 1.34,7.91 1.34,12.41 V 581 h -15.4 v -35 c 0,-3.56 -0.23,-6.6 -0.7,-9.1 -0.47,-2.5 -1.23,-4.54 -2.29,-6.11 -1.06,-1.57 -2.5,-2.71 -4.33,-3.44 -1.83,-0.72 -4.05,-1.08 -6.68,-1.08 -1.95,0 -3.99,0.13 -6.11,0.38 -2.12,0.25 -3.69,0.47 -4.71,0.64 V 581 h -15.4 z"
         id="path20" />
      <path
         class="cls-3"
         d="m 1182.19,582.02 c -4.67,0 -9.38,-0.15 -14.13,-0.45 -4.75,-0.3 -8.91,-0.91 -12.47,-1.85 v -85.66 c 1.87,-0.34 3.86,-0.66 5.98,-0.95 2.12,-0.3 4.28,-0.53 6.49,-0.7 2.21,-0.17 4.39,-0.3 6.55,-0.38 2.16,-0.08 4.22,-0.13 6.17,-0.13 5.35,0 10.31,0.4 14.89,1.21 4.58,0.81 8.55,2.14 11.9,4.01 3.35,1.87 5.96,4.33 7.83,7.38 1.87,3.05 2.8,6.83 2.8,11.33 0,4.16 -1,7.72 -2.99,10.69 -1.99,2.97 -4.77,5.35 -8.34,7.13 5.35,1.78 9.29,4.41 11.84,7.89 2.55,3.48 3.82,7.89 3.82,13.24 0,9.08 -3.31,15.89 -9.93,20.43 -6.62,4.54 -16.76,6.81 -30.42,6.81 z m -10.82,-53.33 h 11.33 c 6.11,0 10.9,-0.87 14.38,-2.61 3.48,-1.74 5.22,-4.86 5.22,-9.35 0,-4.24 -1.8,-7.26 -5.41,-9.04 -3.61,-1.78 -8.29,-2.67 -14.06,-2.67 -2.46,0 -4.65,0.04 -6.55,0.13 -1.91,0.08 -3.54,0.21 -4.9,0.38 v 23.16 z m 0,12.6 v 26.86 c 1.78,0.17 3.69,0.3 5.73,0.38 2.04,0.08 3.9,0.13 5.6,0.13 3.31,0 6.38,-0.21 9.23,-0.64 2.84,-0.42 5.3,-1.17 7.38,-2.23 2.08,-1.06 3.73,-2.48 4.96,-4.26 1.23,-1.78 1.85,-4.07 1.85,-6.87 0,-5.01 -1.83,-8.48 -5.47,-10.44 -3.65,-1.95 -8.7,-2.93 -15.15,-2.93 z"
         id="path21" />
      <path
         class="cls-3"
         d="m 1276.38,528.31 c -1.27,-0.42 -3.03,-0.87 -5.28,-1.34 -2.25,-0.47 -4.86,-0.7 -7.83,-0.7 -1.7,0 -3.5,0.17 -5.41,0.51 -1.91,0.34 -3.25,0.64 -4.01,0.89 V 581 h -15.4 v -63.38 c 2.97,-1.1 6.68,-2.14 11.14,-3.12 4.45,-0.97 9.4,-1.46 14.83,-1.46 1.02,0 2.21,0.06 3.56,0.19 1.36,0.13 2.71,0.3 4.07,0.51 1.36,0.21 2.67,0.47 3.95,0.76 1.27,0.3 2.29,0.57 3.05,0.83 z"
         id="path22" />
      <path
         class="cls-3"
         d="m 1311.89,512.78 c 5.09,0 9.37,0.64 12.85,1.91 3.48,1.27 6.26,3.05 8.34,5.34 2.08,2.29 3.56,5.07 4.45,8.34 0.89,3.27 1.34,6.85 1.34,10.75 v 40.35 c -2.38,0.51 -5.96,1.13 -10.75,1.85 -4.79,0.72 -10.2,1.08 -16.23,1.08 -3.99,0 -7.64,-0.38 -10.95,-1.15 -3.31,-0.76 -6.13,-1.99 -8.46,-3.69 -2.33,-1.7 -4.16,-3.9 -5.47,-6.62 -1.32,-2.71 -1.97,-6.07 -1.97,-10.05 0,-3.98 0.74,-7.04 2.23,-9.67 1.48,-2.63 3.5,-4.77 6.05,-6.43 2.55,-1.66 5.49,-2.84 8.85,-3.56 3.35,-0.72 6.85,-1.08 10.5,-1.08 1.7,0 3.48,0.11 5.35,0.32 1.87,0.21 3.86,0.57 5.98,1.08 v -2.54 c 0,-1.78 -0.21,-3.48 -0.64,-5.09 -0.43,-1.61 -1.17,-3.03 -2.23,-4.26 -1.06,-1.23 -2.46,-2.18 -4.2,-2.86 -1.74,-0.68 -3.93,-1.02 -6.55,-1.02 -3.56,0 -6.83,0.25 -9.8,0.76 -2.97,0.51 -5.39,1.1 -7.25,1.78 l -1.91,-12.47 c 1.95,-0.68 4.79,-1.36 8.53,-2.04 3.73,-0.68 7.72,-1.02 11.96,-1.02 z m 1.27,57.4 c 4.75,0 8.36,-0.25 10.82,-0.76 v -17.06 c -0.85,-0.25 -2.08,-0.51 -3.69,-0.76 -1.61,-0.25 -3.39,-0.38 -5.35,-0.38 -1.7,0 -3.42,0.13 -5.15,0.38 -1.74,0.25 -3.31,0.72 -4.71,1.4 -1.4,0.68 -2.53,1.64 -3.37,2.86 -0.85,1.23 -1.27,2.78 -1.27,4.65 0,3.65 1.15,6.17 3.44,7.57 2.29,1.4 5.39,2.1 9.29,2.1 z"
         id="path23" />
      <path
         class="cls-3"
         d="m 1374.38,569.93 c 4.07,0 7.04,-0.49 8.91,-1.46 1.87,-0.97 2.8,-2.65 2.8,-5.03 0,-2.21 -1,-4.03 -2.99,-5.47 -1.99,-1.44 -5.28,-3.01 -9.86,-4.71 -2.8,-1.02 -5.37,-2.1 -7.7,-3.25 -2.33,-1.15 -4.35,-2.48 -6.05,-4.01 -1.7,-1.53 -3.03,-3.37 -4.01,-5.54 -0.98,-2.16 -1.46,-4.82 -1.46,-7.95 0,-6.11 2.25,-10.92 6.75,-14.45 4.5,-3.52 10.61,-5.28 18.33,-5.28 3.9,0 7.64,0.36 11.2,1.08 3.56,0.72 6.24,1.42 8.02,2.1 l -2.8,12.47 c -1.7,-0.76 -3.86,-1.46 -6.49,-2.1 -2.63,-0.64 -5.69,-0.95 -9.16,-0.95 -3.14,0 -5.69,0.53 -7.64,1.59 -1.95,1.06 -2.93,2.7 -2.93,4.9 0,1.1 0.19,2.08 0.57,2.93 0.38,0.85 1.04,1.63 1.97,2.35 0.93,0.72 2.16,1.44 3.69,2.16 1.53,0.72 3.39,1.46 5.6,2.23 3.65,1.36 6.75,2.7 9.29,4.01 2.55,1.32 4.65,2.8 6.3,4.45 1.65,1.65 2.86,3.54 3.63,5.66 0.76,2.12 1.15,4.67 1.15,7.64 0,6.36 -2.35,11.18 -7.06,14.45 -4.71,3.26 -11.43,4.9 -20.17,4.9 -5.85,0 -10.56,-0.49 -14.13,-1.46 -3.56,-0.97 -6.07,-1.76 -7.51,-2.35 l 2.67,-12.85 c 2.29,0.94 5.03,1.83 8.21,2.67 3.18,0.85 6.81,1.27 10.88,1.27 z"
         id="path24" />
      <path
         class="cls-3"
         d="m 1433.05,494.96 c 0,2.89 -0.93,5.18 -2.8,6.87 -1.87,1.7 -4.07,2.54 -6.62,2.54 -2.55,0 -4.88,-0.85 -6.75,-2.54 -1.87,-1.7 -2.8,-3.99 -2.8,-6.87 0,-2.88 0.93,-5.3 2.8,-7 1.87,-1.7 4.11,-2.55 6.75,-2.55 2.64,0 4.75,0.85 6.62,2.55 1.87,1.7 2.8,4.03 2.8,7 z M 1431.4,581 H 1416 v -66.57 h 15.4 z"
         id="path25" />
      <path
         class="cls-3"
         d="m 1474.16,582.28 c -4.58,-0.09 -8.38,-0.59 -11.39,-1.53 -3.01,-0.93 -5.41,-2.27 -7.19,-4.01 -1.78,-1.74 -3.03,-3.9 -3.75,-6.49 -0.72,-2.59 -1.08,-5.54 -1.08,-8.85 v -76.62 l 15.4,-2.55 v 76.24 c 0,1.87 0.15,3.44 0.45,4.71 0.3,1.27 0.83,2.35 1.59,3.25 0.76,0.89 1.8,1.57 3.12,2.04 1.31,0.47 2.99,0.83 5.03,1.08 l -2.16,12.73 z"
         id="path26" />
    </g>
  </g>
  <path
     class="cls-2"
     d="M 65.581887,1.1802112 H 343.25189 c 3.96,0 7.16,3.21 7.16,7.16 V 423.17021 c 0,3.97 -3.22,7.18 -7.19,7.16 l -141.08,-0.56 c -4.17,-0.02 -7.45,-3.58 -7.11,-7.74 l 5.52,-67.79 c 0.34,-4.17 -2.95,-7.74 -7.14,-7.74 h -71.1 c -3.57,0 -6.6,2.63 -7.09,6.17 l -9.99,71.52 c -0.49,3.54 -3.52,6.17 -7.090002,6.17 H 7.1618878 c -4.35,0 -7.70000001,-3.85 -7.09000001,-8.16 L 58.481887,7.3402112 c 0.5,-3.53 3.52,-6.16 7.09,-6.16 z m 86.020003,87.5599998 -15.26,108.999999 c -0.6,4.31 2.74,8.15 7.09,8.15 h 62.23 c 3.73,0 6.84,-2.87 7.14,-6.59 l 8.72,-108.999999 c 0.33,-4.17 -2.96,-7.73 -7.14,-7.73 h -55.69 c -3.57,0 -6.6,2.63 -7.09,6.17 z"
     id="path27"
     style="fill:#faf9fa;fill-opacity:1" />
  <path
     class="cls-3"
     d="m 392.09189,1.1802112 h 333 c 4.13,0 7.4,3.48 7.15,7.61 l -19.46,312.4899988 c -0.24,3.78 -3.37,6.72 -7.15,6.72 h -197.61 c -3.96,0 -7.16,3.21 -7.16,7.16 v 88.04 c 0,3.96 -3.21,7.16 -7.16,7.16 h -101.6 c -3.96,0 -7.16,-3.21 -7.16,-7.16 V 8.3402112 c 0,-3.96 3.21,-7.16 7.16,-7.16 z m 108.77,65.1299998 V 203.06021 c 0,3.96 3.21,7.16 7.16,7.16 h 63.77 c 3.8,0 6.93,-2.96 7.15,-6.75 l 7.81,-136.749999 c 0.23,-4.11 -3.03,-7.57 -7.15,-7.57 h -71.58 c -3.96,0 -7.16,3.21 -7.16,7.16 z"
     id="path28"
     style="fill:#faf9fa;fill-opacity:1" />
  <path
     class="cls-4"
     d="m 1004.4519,1.1102112 103.12,-1.08000002 c 4.29,-0.04 7.66,3.67000002 7.19,7.94000002 l -45.3,416.6199988 c -0.4,3.63 -3.46,6.39 -7.12,6.39 H 797.51189 c -3.83,0 -6.98,-3.01 -7.15,-6.84 l -3.05,-67.05 c -0.19,-4.09 3.09,-7.5 7.18,-7.49 l 171.4,0.57 c 3.77,0.01 6.9,-2.89 7.17,-6.65 l 3.28,-45.86 c 0.3,-4.23 -3.11,-7.79 -7.35,-7.67 l -179.34,5.12 c -3.89,0.11 -7.15,-2.9 -7.36,-6.78 l -14.66,-279.6699988 c -0.21,-4.07 3.01,-7.5 7.09,-7.54 l 140.77,-1.12000002283 c 3.95,-0.0299999972 7.18,3.14000002283 7.22,7.08000002283 l 2.31,214.5499988 c 0.04,3.92 3.24,7.08 7.16,7.08 h 42.37 c 3.75,0 6.87,-2.9 7.14,-6.64 L 997.37186,7.7402112 c 0.27,-3.71 3.34004,-6.6 7.07004,-6.64 z"
     id="path29"
     style="fill:#faf9fa;fill-opacity:1" />
  <path
     class="cls-2"
     d="m 1489.6619,236.21021 10.33,185.98 c 0.23,4.1 -3.03,7.55 -7.14,7.56 l -335.52,0.59 c -3.96,0 -7.17,-3.2 -7.17,-7.16 V 8.9402112 c 0,-3.95 3.2,-7.15 7.15,-7.16 l 279.72,-0.59 c 3.75,0 6.87,2.88 7.16,6.62 l 11.32,148.9199988 c 0.28,3.73 -2.36,7.06 -6.06,7.62 l -75.98,11.61 c -3.57,0.55 -6.18,3.67 -6.08,7.28 l 0.87,31.01 c 0.1,3.66 2.96,6.66 6.61,6.94 l 108.17,8.28 c 3.58,0.27 6.4,3.16 6.6,6.74 z m -241.99,-98.99 59.26,-1.99 c 3.99,-0.13 7.1,-3.51 6.91,-7.49 l -1.81,-38.559999 c -0.18,-3.73 -3.19,-6.7 -6.92,-6.82 l -60.65,-1.99 c -4.26,-0.14 -7.7,3.45 -7.38,7.7 l 3.2,42.539999 c 0.29,3.83 3.54,6.75 7.38,6.62 z m 63.99,96.12 -54.7,-2.44 c -4.09,-0.18 -7.51,3.1 -7.48,7.2 l 0.53,88.33 c 0.02,3.94 3.22,7.12 7.16,7.12 h 54.17 c 3.96,0 7.16,-3.21 7.16,-7.16 v -85.88 c 0,-3.83 -3.01,-6.98 -6.84,-7.15 z"
     id="path30"
     style="fill:#faf9fa;fill-opacity:1" />
  <g
     id="g52"
     style="fill:#ffb93b;fill-opacity:1"
     transform="translate(0.00188779,2.1117717e-4)">
    <path
       class="cls-5"
       d="m 82.43,581 c -1.19,-3.48 -2.42,-6.91 -3.7,-10.31 -1.28,-3.39 -2.51,-6.87 -3.7,-10.44 H 37.77 c -1.19,3.56 -2.4,7.06 -3.64,10.5 -1.23,3.44 -2.45,6.85 -3.64,10.25 H 13.82 c 3.31,-9.42 6.44,-18.11 9.41,-26.09 2.97,-7.98 5.87,-15.53 8.71,-22.66 2.84,-7.13 5.66,-13.91 8.46,-20.36 2.8,-6.45 5.68,-12.81 8.65,-19.09 h 15.31 c 2.97,6.28 5.85,12.64 8.65,19.09 2.8,6.45 5.62,13.24 8.46,20.36 2.84,7.13 5.77,14.68 8.78,22.66 3.01,7.98 6.17,16.67 9.48,26.09 H 82.42 Z M 56.4,509.85 c -1.95,4.5 -4.18,9.97 -6.68,16.42 -2.5,6.45 -5.11,13.45 -7.83,21 h 29.02 c -2.72,-7.55 -5.35,-14.59 -7.89,-21.13 -2.55,-6.53 -4.75,-11.96 -6.62,-16.29 z"
       id="path31"
       style="fill:#ffb93b;fill-opacity:1" />
    <path
       class="cls-5"
       d="m 128.12,569.93 c 4.07,0 7.04,-0.49 8.91,-1.46 1.87,-0.97 2.8,-2.65 2.8,-5.03 0,-2.21 -1,-4.03 -2.99,-5.47 -1.99,-1.44 -5.28,-3.01 -9.86,-4.71 -2.8,-1.02 -5.37,-2.1 -7.7,-3.25 -2.33,-1.15 -4.35,-2.48 -6.05,-4.01 -1.7,-1.53 -3.03,-3.37 -4.01,-5.54 -0.98,-2.16 -1.46,-4.82 -1.46,-7.95 0,-6.11 2.25,-10.92 6.75,-14.45 4.5,-3.52 10.61,-5.28 18.33,-5.28 3.9,0 7.64,0.36 11.2,1.08 3.56,0.72 6.24,1.42 8.02,2.1 l -2.8,12.47 c -1.7,-0.76 -3.86,-1.46 -6.49,-2.1 -2.63,-0.64 -5.69,-0.95 -9.16,-0.95 -3.14,0 -5.69,0.53 -7.64,1.59 -1.95,1.06 -2.93,2.7 -2.93,4.9 0,1.1 0.19,2.08 0.57,2.93 0.38,0.85 1.04,1.63 1.97,2.35 0.93,0.72 2.16,1.44 3.69,2.16 1.53,0.72 3.39,1.46 5.6,2.23 3.65,1.36 6.75,2.7 9.29,4.01 2.55,1.32 4.65,2.8 6.3,4.45 1.65,1.65 2.86,3.54 3.63,5.66 0.76,2.12 1.15,4.67 1.15,7.64 0,6.36 -2.35,11.18 -7.06,14.45 -4.71,3.26 -11.43,4.9 -20.17,4.9 -5.85,0 -10.56,-0.49 -14.13,-1.46 -3.56,-0.97 -6.07,-1.76 -7.51,-2.35 l 2.67,-12.85 c 2.29,0.94 5.03,1.83 8.21,2.67 3.18,0.85 6.81,1.27 10.88,1.27 z"
       id="path32"
       style="fill:#ffb93b;fill-opacity:1" />
    <path
       class="cls-5"
       d="m 186.28,569.93 c 4.07,0 7.04,-0.49 8.91,-1.46 1.87,-0.97 2.8,-2.65 2.8,-5.03 0,-2.21 -1,-4.03 -2.99,-5.47 -1.99,-1.44 -5.28,-3.01 -9.86,-4.71 -2.8,-1.02 -5.37,-2.1 -7.7,-3.25 -2.33,-1.15 -4.35,-2.48 -6.05,-4.01 -1.7,-1.53 -3.03,-3.37 -4.01,-5.54 -0.98,-2.16 -1.46,-4.82 -1.46,-7.95 0,-6.11 2.25,-10.92 6.75,-14.45 4.5,-3.52 10.61,-5.28 18.33,-5.28 3.9,0 7.64,0.36 11.2,1.08 3.56,0.72 6.24,1.42 8.02,2.1 l -2.8,12.47 c -1.7,-0.76 -3.86,-1.46 -6.49,-2.1 -2.63,-0.64 -5.69,-0.95 -9.16,-0.95 -3.14,0 -5.69,0.53 -7.64,1.59 -1.95,1.06 -2.93,2.7 -2.93,4.9 0,1.1 0.19,2.08 0.57,2.93 0.38,0.85 1.04,1.63 1.97,2.35 0.93,0.72 2.16,1.44 3.69,2.16 1.53,0.72 3.39,1.46 5.6,2.23 3.65,1.36 6.75,2.7 9.29,4.01 2.55,1.32 4.65,2.8 6.3,4.45 1.65,1.65 2.86,3.54 3.63,5.66 0.76,2.12 1.15,4.67 1.15,7.64 0,6.36 -2.35,11.18 -7.06,14.45 -4.71,3.26 -11.43,4.9 -20.17,4.9 -5.85,0 -10.56,-0.49 -14.13,-1.46 -3.56,-0.97 -6.07,-1.76 -7.51,-2.35 l 2.67,-12.85 c 2.29,0.94 5.03,1.83 8.21,2.67 3.18,0.85 6.81,1.27 10.88,1.27 z"
       id="path33"
       style="fill:#ffb93b;fill-opacity:1" />
    <path
       class="cls-5"
       d="m 287.97,547.66 c 0,5.26 -0.76,10.06 -2.29,14.38 -1.53,4.33 -3.69,8.02 -6.49,11.07 -2.8,3.06 -6.17,5.43 -10.12,7.13 -3.95,1.7 -8.29,2.54 -13.05,2.54 -4.76,0 -9.08,-0.85 -12.98,-2.54 -3.9,-1.7 -7.26,-4.07 -10.05,-7.13 -2.8,-3.05 -4.99,-6.74 -6.55,-11.07 -1.57,-4.33 -2.35,-9.12 -2.35,-14.38 0,-5.26 0.78,-10.03 2.35,-14.32 1.57,-4.28 3.77,-7.95 6.62,-11.01 2.84,-3.05 6.21,-5.41 10.12,-7.06 3.9,-1.65 8.19,-2.48 12.85,-2.48 4.66,0 8.97,0.83 12.92,2.48 3.95,1.66 7.32,4.01 10.12,7.06 2.8,3.05 4.98,6.73 6.55,11.01 1.57,4.29 2.35,9.06 2.35,14.32 z m -15.78,0 c 0,-6.62 -1.42,-11.86 -4.26,-15.72 -2.84,-3.86 -6.81,-5.79 -11.9,-5.79 -5.09,0 -9.06,1.93 -11.9,5.79 -2.84,3.86 -4.26,9.1 -4.26,15.72 0,6.62 1.42,12.01 4.26,15.91 2.84,3.9 6.81,5.86 11.9,5.86 5.09,0 9.06,-1.95 11.9,-5.86 2.84,-3.9 4.26,-9.2 4.26,-15.91 z"
       id="path34"
       style="fill:#ffb93b;fill-opacity:1" />
    <path
       class="cls-5"
       d="m 300.19,547.78 c 0,-4.92 0.76,-9.52 2.29,-13.81 1.53,-4.28 3.71,-8 6.55,-11.14 2.84,-3.14 6.3,-5.6 10.37,-7.38 4.07,-1.78 8.65,-2.67 13.75,-2.67 6.28,0 12.22,1.15 17.82,3.44 l -3.31,12.6 c -1.78,-0.76 -3.8,-1.4 -6.05,-1.91 -2.25,-0.51 -4.65,-0.76 -7.19,-0.76 -6.03,0 -10.61,1.89 -13.75,5.66 -3.14,3.78 -4.71,9.1 -4.71,15.97 0,6.87 1.48,11.86 4.45,15.72 2.97,3.86 7.97,5.79 15.02,5.79 2.63,0 5.22,-0.25 7.76,-0.76 2.55,-0.51 4.75,-1.15 6.62,-1.91 l 2.16,12.73 c -1.7,0.85 -4.26,1.61 -7.7,2.29 -3.44,0.68 -6.98,1.02 -10.63,1.02 -5.69,0 -10.63,-0.87 -14.83,-2.61 -4.2,-1.74 -7.68,-4.16 -10.44,-7.25 -2.76,-3.1 -4.82,-6.79 -6.17,-11.07 -1.36,-4.28 -2.04,-8.93 -2.04,-13.94 z"
       id="path35"
       style="fill:#ffb93b;fill-opacity:1" />
    <path
       class="cls-5"
       d="m 381.14,494.96 c 0,2.89 -0.93,5.18 -2.8,6.87 -1.87,1.7 -4.07,2.54 -6.62,2.54 -2.55,0 -4.88,-0.85 -6.75,-2.54 -1.87,-1.7 -2.8,-3.99 -2.8,-6.87 0,-2.88 0.93,-5.3 2.8,-7 1.87,-1.7 4.11,-2.55 6.75,-2.55 2.64,0 4.75,0.85 6.62,2.55 1.87,1.7 2.8,4.03 2.8,7 z M 379.49,581 h -15.4 v -66.57 h 15.4 z"
       id="path36"
       style="fill:#ffb93b;fill-opacity:1" />
    <path
       class="cls-5"
       d="m 421.23,512.78 c 5.09,0 9.37,0.64 12.85,1.91 3.48,1.27 6.26,3.05 8.34,5.34 2.08,2.29 3.56,5.07 4.45,8.34 0.89,3.27 1.34,6.85 1.34,10.75 v 40.35 c -2.38,0.51 -5.96,1.13 -10.75,1.85 -4.79,0.72 -10.2,1.08 -16.23,1.08 -3.99,0 -7.64,-0.38 -10.95,-1.15 -3.31,-0.76 -6.13,-1.99 -8.46,-3.69 -2.33,-1.7 -4.16,-3.9 -5.47,-6.62 -1.32,-2.71 -1.97,-6.07 -1.97,-10.05 0,-3.98 0.74,-7.04 2.23,-9.67 1.48,-2.63 3.5,-4.77 6.05,-6.43 2.55,-1.66 5.49,-2.84 8.85,-3.56 3.35,-0.72 6.85,-1.08 10.5,-1.08 1.7,0 3.48,0.11 5.35,0.32 1.87,0.21 3.86,0.57 5.98,1.08 v -2.54 c 0,-1.78 -0.21,-3.48 -0.64,-5.09 -0.43,-1.61 -1.17,-3.03 -2.23,-4.26 -1.06,-1.23 -2.46,-2.18 -4.2,-2.86 -1.74,-0.68 -3.93,-1.02 -6.55,-1.02 -3.56,0 -6.83,0.25 -9.8,0.76 -2.97,0.51 -5.39,1.1 -7.25,1.78 l -1.91,-12.47 c 1.95,-0.68 4.79,-1.36 8.53,-2.04 3.73,-0.68 7.72,-1.02 11.96,-1.02 z m 1.27,57.4 c 4.75,0 8.36,-0.25 10.82,-0.76 v -17.06 c -0.85,-0.25 -2.08,-0.51 -3.69,-0.76 -1.61,-0.25 -3.39,-0.38 -5.35,-0.38 -1.7,0 -3.42,0.13 -5.15,0.38 -1.74,0.25 -3.31,0.72 -4.71,1.4 -1.4,0.68 -2.53,1.64 -3.37,2.86 -0.85,1.23 -1.27,2.78 -1.27,4.65 0,3.65 1.15,6.17 3.44,7.57 2.29,1.4 5.39,2.1 9.29,2.1 z"
       id="path37"
       style="fill:#ffb93b;fill-opacity:1" />
    <path
       class="cls-5"
       d="m 497.59,585.97 c 2.71,1.27 4.6,2.71 5.66,4.33 1.06,1.61 1.59,3.61 1.59,5.98 0,2.97 -1.27,5.51 -3.82,7.64 -2.55,2.12 -6.36,3.18 -11.45,3.18 -4.07,0 -7.68,-0.55 -10.82,-1.65 l 1.78,-9.16 c 0.85,0.25 1.95,0.55 3.31,0.89 1.36,0.34 2.76,0.51 4.2,0.51 1.44,0 2.57,-0.25 3.37,-0.76 0.81,-0.51 1.21,-1.27 1.21,-2.29 0,-1.36 -0.59,-2.35 -1.78,-2.99 -1.19,-0.64 -2.38,-1.17 -3.56,-1.59 l -1.27,-0.38 c 0.34,-1.1 0.81,-2.35 1.4,-3.75 0.59,-1.4 1.19,-2.7 1.78,-3.88 -4.41,-0.76 -8.23,-2.12 -11.46,-4.07 -3.23,-1.95 -5.9,-4.43 -8.02,-7.45 -2.12,-3.01 -3.71,-6.43 -4.77,-10.24 -1.06,-3.82 -1.59,-7.98 -1.59,-12.47 0,-4.92 0.76,-9.52 2.29,-13.81 1.53,-4.28 3.71,-8 6.55,-11.14 2.84,-3.14 6.3,-5.6 10.37,-7.38 4.07,-1.78 8.65,-2.67 13.75,-2.67 6.28,0 12.22,1.15 17.82,3.44 l -3.31,12.6 c -1.78,-0.76 -3.8,-1.4 -6.05,-1.91 -2.25,-0.51 -4.65,-0.76 -7.19,-0.76 -6.03,0 -10.61,1.89 -13.75,5.66 -3.14,3.78 -4.71,9.1 -4.71,15.97 0,6.87 1.48,11.86 4.45,15.72 2.97,3.86 7.97,5.79 15.02,5.79 2.63,0 5.22,-0.25 7.76,-0.76 2.55,-0.51 4.75,-1.15 6.62,-1.91 l 2.16,12.73 c -1.53,0.76 -3.78,1.44 -6.75,2.04 -2.97,0.59 -6.07,0.97 -9.29,1.15 -0.34,0.68 -0.64,1.31 -0.89,1.91 -0.25,0.59 -0.47,1.1 -0.64,1.53 z"
       id="path38"
       style="fill:#ffb93b;fill-opacity:1" />
    <path
       class="cls-5"
       d="m 549.26,512.78 c 5.09,0 9.37,0.64 12.85,1.91 3.48,1.27 6.26,3.05 8.34,5.34 2.08,2.29 3.56,5.07 4.45,8.34 0.89,3.27 1.34,6.85 1.34,10.75 v 40.35 c -2.38,0.51 -5.96,1.13 -10.75,1.85 -4.79,0.72 -10.2,1.08 -16.23,1.08 -3.99,0 -7.64,-0.38 -10.95,-1.15 -3.31,-0.76 -6.13,-1.99 -8.46,-3.69 -2.33,-1.7 -4.16,-3.9 -5.47,-6.62 -1.32,-2.71 -1.97,-6.07 -1.97,-10.05 0,-3.98 0.74,-7.04 2.23,-9.67 1.48,-2.63 3.5,-4.77 6.05,-6.43 2.55,-1.66 5.49,-2.84 8.85,-3.56 3.35,-0.72 6.85,-1.08 10.5,-1.08 1.7,0 3.48,0.11 5.35,0.32 1.87,0.21 3.86,0.57 5.98,1.08 v -2.54 c 0,-1.78 -0.21,-3.48 -0.64,-5.09 -0.43,-1.61 -1.17,-3.03 -2.23,-4.26 -1.06,-1.23 -2.46,-2.18 -4.2,-2.86 -1.74,-0.68 -3.93,-1.02 -6.55,-1.02 -3.56,0 -6.83,0.25 -9.8,0.76 -2.97,0.51 -5.39,1.1 -7.25,1.78 l -1.91,-12.47 c 1.95,-0.68 4.79,-1.36 8.53,-2.04 3.73,-0.68 7.72,-1.02 11.96,-1.02 z m 22.46,-18.26 c -0.81,1.4 -1.8,2.72 -2.99,3.95 -1.19,1.23 -2.55,2.27 -4.07,3.12 -1.53,0.85 -3.23,1.27 -5.09,1.27 -1.53,0 -2.97,-0.23 -4.33,-0.7 -1.36,-0.47 -2.69,-1 -4.01,-1.59 -1.32,-0.59 -2.59,-1.12 -3.82,-1.59 -1.23,-0.47 -2.44,-0.7 -3.63,-0.7 -1.61,0 -2.99,0.55 -4.14,1.65 -1.15,1.1 -2.06,2.38 -2.74,3.82 l -7.76,-4.58 c 0.42,-1.19 1.04,-2.48 1.85,-3.88 0.81,-1.4 1.82,-2.71 3.05,-3.95 1.23,-1.23 2.61,-2.27 4.14,-3.12 1.53,-0.85 3.22,-1.27 5.09,-1.27 1.53,0 2.97,0.25 4.33,0.76 1.36,0.51 2.69,1.04 4.01,1.59 1.31,0.55 2.59,1.08 3.82,1.59 1.23,0.51 2.44,0.76 3.63,0.76 1.61,0 2.99,-0.57 4.14,-1.72 1.15,-1.15 2.06,-2.44 2.74,-3.88 l 7.76,4.58 c -0.51,1.19 -1.17,2.48 -1.97,3.88 z m -21.19,75.67 c 4.75,0 8.36,-0.25 10.82,-0.76 v -17.06 c -0.85,-0.25 -2.08,-0.51 -3.69,-0.76 -1.61,-0.25 -3.39,-0.38 -5.35,-0.38 -1.7,0 -3.42,0.13 -5.15,0.38 -1.74,0.25 -3.31,0.72 -4.71,1.4 -1.4,0.68 -2.53,1.64 -3.37,2.86 -0.85,1.23 -1.27,2.78 -1.27,4.65 0,3.65 1.15,6.17 3.44,7.57 2.29,1.4 5.39,2.1 9.29,2.1 z"
       id="path39"
       style="fill:#ffb93b;fill-opacity:1" />
    <path
       class="cls-5"
       d="m 655.28,547.66 c 0,5.26 -0.76,10.06 -2.29,14.38 -1.53,4.33 -3.69,8.02 -6.49,11.07 -2.8,3.06 -6.17,5.43 -10.12,7.13 -3.95,1.7 -8.29,2.54 -13.05,2.54 -4.76,0 -9.08,-0.85 -12.98,-2.54 -3.9,-1.7 -7.26,-4.07 -10.05,-7.13 -2.8,-3.05 -4.99,-6.74 -6.55,-11.07 -1.57,-4.33 -2.35,-9.12 -2.35,-14.38 0,-5.26 0.78,-10.03 2.35,-14.32 1.57,-4.28 3.77,-7.95 6.62,-11.01 2.84,-3.05 6.21,-5.41 10.12,-7.06 3.9,-1.65 8.19,-2.48 12.85,-2.48 4.66,0 8.97,0.83 12.92,2.48 3.95,1.66 7.32,4.01 10.12,7.06 2.8,3.05 4.98,6.73 6.55,11.01 1.57,4.29 2.35,9.06 2.35,14.32 z m -15.78,0 c 0,-6.62 -1.42,-11.86 -4.26,-15.72 -2.84,-3.86 -6.81,-5.79 -11.9,-5.79 -5.09,0 -9.06,1.93 -11.9,5.79 -2.84,3.86 -4.26,9.1 -4.26,15.72 0,6.62 1.42,12.01 4.26,15.91 2.84,3.9 6.81,5.86 11.9,5.86 5.09,0 9.06,-1.95 11.9,-5.86 2.84,-3.9 4.26,-9.2 4.26,-15.91 z"
       id="path40"
       style="fill:#ffb93b;fill-opacity:1" />
    <path
       class="cls-5"
       d="m 726.56,491.91 c 12.81,0 22.63,2.33 29.46,7 6.83,4.67 10.25,11.96 10.25,21.89 0,5.18 -0.91,9.61 -2.74,13.3 -1.83,3.69 -4.48,6.7 -7.95,9.04 -3.48,2.33 -7.72,4.05 -12.73,5.16 -5.01,1.1 -10.73,1.65 -17.18,1.65 h -8.02 v 31.06 h -16.04 v -86.93 c 3.73,-0.85 7.87,-1.42 12.41,-1.72 4.54,-0.3 8.72,-0.45 12.54,-0.45 z m 1.15,13.87 c -4.07,0 -7.43,0.13 -10.05,0.38 v 30.04 h 7.76 c 7.72,0 13.66,-1.08 17.82,-3.25 4.16,-2.16 6.24,-6.26 6.24,-12.28 0,-2.88 -0.55,-5.3 -1.65,-7.25 -1.1,-1.95 -2.63,-3.48 -4.58,-4.58 -1.95,-1.1 -4.26,-1.89 -6.94,-2.35 -2.67,-0.47 -5.54,-0.7 -8.59,-0.7 z"
       id="path41"
       style="fill:#ffb93b;fill-opacity:1" />
    <path
       class="cls-5"
       d="m 835.63,514.44 c -6.86,25.29 -14.82,48.2 -23.88,68.73 -1.7,3.82 -3.44,7.08 -5.22,9.8 -1.78,2.71 -3.78,4.96 -5.99,6.74 -2.21,1.78 -4.67,3.08 -7.39,3.88 -2.72,0.81 -5.86,1.21 -9.43,1.21 -2.38,0 -4.74,-0.25 -7.07,-0.76 -2.34,-0.51 -4.1,-1.06 -5.29,-1.65 l 2.8,-12.35 c 3.07,1.19 6.1,1.78 9.08,1.78 4,0 7.14,-0.95 9.4,-2.86 2.26,-1.91 4.24,-4.86 5.95,-8.85 -4.86,-9.33 -9.52,-19.52 -14,-30.55 -4.47,-11.03 -8.46,-22.74 -11.95,-35.13 h 16.42 c 0.85,3.56 1.89,7.43 3.13,11.58 1.24,4.16 2.58,8.38 4.03,12.66 1.45,4.29 2.98,8.55 4.6,12.79 1.62,4.24 3.24,8.19 4.86,11.84 2.7,-7.55 5.24,-15.59 7.6,-24.12 2.36,-8.53 4.52,-16.78 6.46,-24.75 h 15.91 z"
       id="path42"
       style="fill:#ffb93b;fill-opacity:1" />
    <path
       class="cls-5"
       d="m 846.57,496.87 15.4,-2.54 v 20.11 h 23.67 v 12.85 h -23.67 v 27.11 c 0,5.35 0.85,9.16 2.55,11.45 1.7,2.29 4.58,3.44 8.65,3.44 2.8,0 5.28,-0.3 7.45,-0.89 2.16,-0.59 3.88,-1.15 5.15,-1.66 l 2.55,12.22 c -1.78,0.76 -4.12,1.55 -7,2.35 -2.89,0.81 -6.28,1.21 -10.18,1.21 -4.75,0 -8.72,-0.64 -11.9,-1.91 -3.18,-1.27 -5.71,-3.12 -7.57,-5.54 -1.87,-2.42 -3.18,-5.35 -3.95,-8.78 -0.76,-3.44 -1.15,-7.36 -1.15,-11.77 v -57.66 z"
       id="path43"
       style="fill:#ffb93b;fill-opacity:1" />
    <path
       class="cls-5"
       d="m 900.54,581 v -96.22 l 15.4,-2.55 v 32.96 c 1.7,-0.59 3.67,-1.1 5.92,-1.53 2.25,-0.42 4.47,-0.64 6.68,-0.64 5.35,0 9.78,0.74 13.3,2.23 3.52,1.49 6.34,3.56 8.46,6.24 2.12,2.67 3.63,5.88 4.52,9.61 0.89,3.73 1.34,7.89 1.34,12.47 v 37.42 h -15.4 v -35 c 0,-3.56 -0.23,-6.6 -0.7,-9.1 -0.47,-2.5 -1.23,-4.54 -2.29,-6.11 -1.06,-1.57 -2.48,-2.71 -4.26,-3.44 -1.78,-0.72 -3.99,-1.08 -6.62,-1.08 -2.04,0 -4.12,0.21 -6.24,0.64 -2.12,0.43 -3.69,0.81 -4.71,1.15 V 581 Z"
       id="path44"
       style="fill:#ffb93b;fill-opacity:1" />
    <path
       class="cls-5"
       d="m 1034.81,547.66 c 0,5.26 -0.76,10.06 -2.29,14.38 -1.53,4.33 -3.69,8.02 -6.49,11.07 -2.8,3.06 -6.17,5.43 -10.12,7.13 -3.95,1.7 -8.29,2.54 -13.05,2.54 -4.76,0 -9.08,-0.85 -12.98,-2.54 -3.9,-1.7 -7.26,-4.07 -10.05,-7.13 -2.8,-3.05 -4.99,-6.74 -6.55,-11.07 -1.57,-4.33 -2.35,-9.12 -2.35,-14.38 0,-5.26 0.78,-10.03 2.35,-14.32 1.57,-4.28 3.77,-7.95 6.62,-11.01 2.84,-3.05 6.21,-5.41 10.12,-7.06 3.9,-1.65 8.19,-2.48 12.85,-2.48 4.66,0 8.97,0.83 12.92,2.48 3.95,1.66 7.32,4.01 10.12,7.06 2.8,3.05 4.98,6.73 6.55,11.01 1.57,4.29 2.35,9.06 2.35,14.32 z m -15.78,0 c 0,-6.62 -1.42,-11.86 -4.26,-15.72 -2.84,-3.86 -6.81,-5.79 -11.9,-5.79 -5.09,0 -9.06,1.93 -11.9,5.79 -2.84,3.86 -4.26,9.1 -4.26,15.72 0,6.62 1.42,12.01 4.26,15.91 2.84,3.9 6.81,5.86 11.9,5.86 5.09,0 9.06,-1.95 11.9,-5.86 2.84,-3.9 4.26,-9.2 4.26,-15.91 z"
       id="path45"
       style="fill:#ffb93b;fill-opacity:1" />
    <path
       class="cls-5"
       d="m 1050.72,516.6 c 2.97,-0.85 6.83,-1.66 11.58,-2.42 4.75,-0.76 10.01,-1.15 15.78,-1.15 5.43,0 9.97,0.74 13.62,2.23 3.65,1.49 6.55,3.56 8.72,6.24 2.16,2.67 3.69,5.9 4.58,9.67 0.89,3.78 1.34,7.91 1.34,12.41 V 581 h -15.4 v -35 c 0,-3.56 -0.23,-6.6 -0.7,-9.1 -0.47,-2.5 -1.23,-4.54 -2.29,-6.11 -1.06,-1.57 -2.5,-2.71 -4.33,-3.44 -1.83,-0.72 -4.05,-1.08 -6.68,-1.08 -1.95,0 -3.99,0.13 -6.11,0.38 -2.12,0.25 -3.69,0.47 -4.71,0.64 V 581 h -15.4 z"
       id="path46"
       style="fill:#ffb93b;fill-opacity:1" />
    <path
       class="cls-5"
       d="m 1182.19,582.02 c -4.67,0 -9.38,-0.15 -14.13,-0.45 -4.75,-0.3 -8.91,-0.91 -12.47,-1.85 v -85.66 c 1.87,-0.34 3.86,-0.66 5.98,-0.95 2.12,-0.3 4.28,-0.53 6.49,-0.7 2.21,-0.17 4.39,-0.3 6.55,-0.38 2.16,-0.08 4.22,-0.13 6.17,-0.13 5.35,0 10.31,0.4 14.89,1.21 4.58,0.81 8.55,2.14 11.9,4.01 3.35,1.87 5.96,4.33 7.83,7.38 1.87,3.05 2.8,6.83 2.8,11.33 0,4.16 -1,7.72 -2.99,10.69 -1.99,2.97 -4.77,5.35 -8.34,7.13 5.35,1.78 9.29,4.41 11.84,7.89 2.55,3.48 3.82,7.89 3.82,13.24 0,9.08 -3.31,15.89 -9.93,20.43 -6.62,4.54 -16.76,6.81 -30.42,6.81 z m -10.82,-53.33 h 11.33 c 6.11,0 10.9,-0.87 14.38,-2.61 3.48,-1.74 5.22,-4.86 5.22,-9.35 0,-4.24 -1.8,-7.26 -5.41,-9.04 -3.61,-1.78 -8.29,-2.67 -14.06,-2.67 -2.46,0 -4.65,0.04 -6.55,0.13 -1.91,0.08 -3.54,0.21 -4.9,0.38 v 23.16 z m 0,12.6 v 26.86 c 1.78,0.17 3.69,0.3 5.73,0.38 2.04,0.08 3.9,0.13 5.6,0.13 3.31,0 6.38,-0.21 9.23,-0.64 2.84,-0.42 5.3,-1.17 7.38,-2.23 2.08,-1.06 3.73,-2.48 4.96,-4.26 1.23,-1.78 1.85,-4.07 1.85,-6.87 0,-5.01 -1.83,-8.48 -5.47,-10.44 -3.65,-1.95 -8.7,-2.93 -15.15,-2.93 z"
       id="path47"
       style="fill:#ffb93b;fill-opacity:1" />
    <path
       class="cls-5"
       d="m 1276.38,528.31 c -1.27,-0.42 -3.03,-0.87 -5.28,-1.34 -2.25,-0.47 -4.86,-0.7 -7.83,-0.7 -1.7,0 -3.5,0.17 -5.41,0.51 -1.91,0.34 -3.25,0.64 -4.01,0.89 V 581 h -15.4 v -63.38 c 2.97,-1.1 6.68,-2.14 11.14,-3.12 4.45,-0.97 9.4,-1.46 14.83,-1.46 1.02,0 2.21,0.06 3.56,0.19 1.36,0.13 2.71,0.3 4.07,0.51 1.36,0.21 2.67,0.47 3.95,0.76 1.27,0.3 2.29,0.57 3.05,0.83 z"
       id="path48"
       style="fill:#ffb93b;fill-opacity:1" />
    <path
       class="cls-5"
       d="m 1311.89,512.78 c 5.09,0 9.37,0.64 12.85,1.91 3.48,1.27 6.26,3.05 8.34,5.34 2.08,2.29 3.56,5.07 4.45,8.34 0.89,3.27 1.34,6.85 1.34,10.75 v 40.35 c -2.38,0.51 -5.96,1.13 -10.75,1.85 -4.79,0.72 -10.2,1.08 -16.23,1.08 -3.99,0 -7.64,-0.38 -10.95,-1.15 -3.31,-0.76 -6.13,-1.99 -8.46,-3.69 -2.33,-1.7 -4.16,-3.9 -5.47,-6.62 -1.32,-2.71 -1.97,-6.07 -1.97,-10.05 0,-3.98 0.74,-7.04 2.23,-9.67 1.48,-2.63 3.5,-4.77 6.05,-6.43 2.55,-1.66 5.49,-2.84 8.85,-3.56 3.35,-0.72 6.85,-1.08 10.5,-1.08 1.7,0 3.48,0.11 5.35,0.32 1.87,0.21 3.86,0.57 5.98,1.08 v -2.54 c 0,-1.78 -0.21,-3.48 -0.64,-5.09 -0.43,-1.61 -1.17,-3.03 -2.23,-4.26 -1.06,-1.23 -2.46,-2.18 -4.2,-2.86 -1.74,-0.68 -3.93,-1.02 -6.55,-1.02 -3.56,0 -6.83,0.25 -9.8,0.76 -2.97,0.51 -5.39,1.1 -7.25,1.78 l -1.91,-12.47 c 1.95,-0.68 4.79,-1.36 8.53,-2.04 3.73,-0.68 7.72,-1.02 11.96,-1.02 z m 1.27,57.4 c 4.75,0 8.36,-0.25 10.82,-0.76 v -17.06 c -0.85,-0.25 -2.08,-0.51 -3.69,-0.76 -1.61,-0.25 -3.39,-0.38 -5.35,-0.38 -1.7,0 -3.42,0.13 -5.15,0.38 -1.74,0.25 -3.31,0.72 -4.71,1.4 -1.4,0.68 -2.53,1.64 -3.37,2.86 -0.85,1.23 -1.27,2.78 -1.27,4.65 0,3.65 1.15,6.17 3.44,7.57 2.29,1.4 5.39,2.1 9.29,2.1 z"
       id="path49"
       style="fill:#ffb93b;fill-opacity:1" />
    <path
       class="cls-5"
       d="m 1374.38,569.93 c 4.07,0 7.04,-0.49 8.91,-1.46 1.87,-0.97 2.8,-2.65 2.8,-5.03 0,-2.21 -1,-4.03 -2.99,-5.47 -1.99,-1.44 -5.28,-3.01 -9.86,-4.71 -2.8,-1.02 -5.37,-2.1 -7.7,-3.25 -2.33,-1.15 -4.35,-2.48 -6.05,-4.01 -1.7,-1.53 -3.03,-3.37 -4.01,-5.54 -0.98,-2.16 -1.46,-4.82 -1.46,-7.95 0,-6.11 2.25,-10.92 6.75,-14.45 4.5,-3.52 10.61,-5.28 18.33,-5.28 3.9,0 7.64,0.36 11.2,1.08 3.56,0.72 6.24,1.42 8.02,2.1 l -2.8,12.47 c -1.7,-0.76 -3.86,-1.46 -6.49,-2.1 -2.63,-0.64 -5.69,-0.95 -9.16,-0.95 -3.14,0 -5.69,0.53 -7.64,1.59 -1.95,1.06 -2.93,2.7 -2.93,4.9 0,1.1 0.19,2.08 0.57,2.93 0.38,0.85 1.04,1.63 1.97,2.35 0.93,0.72 2.16,1.44 3.69,2.16 1.53,0.72 3.39,1.46 5.6,2.23 3.65,1.36 6.75,2.7 9.29,4.01 2.55,1.32 4.65,2.8 6.3,4.45 1.65,1.65 2.86,3.54 3.63,5.66 0.76,2.12 1.15,4.67 1.15,7.64 0,6.36 -2.35,11.18 -7.06,14.45 -4.71,3.26 -11.43,4.9 -20.17,4.9 -5.85,0 -10.56,-0.49 -14.13,-1.46 -3.56,-0.97 -6.07,-1.76 -7.51,-2.35 l 2.67,-12.85 c 2.29,0.94 5.03,1.83 8.21,2.67 3.18,0.85 6.81,1.27 10.88,1.27 z"
       id="path50"
       style="fill:#ffb93b;fill-opacity:1" />
    <path
       class="cls-5"
       d="m 1433.05,494.96 c 0,2.89 -0.93,5.18 -2.8,6.87 -1.87,1.7 -4.07,2.54 -6.62,2.54 -2.55,0 -4.88,-0.85 -6.75,-2.54 -1.87,-1.7 -2.8,-3.99 -2.8,-6.87 0,-2.88 0.93,-5.3 2.8,-7 1.87,-1.7 4.11,-2.55 6.75,-2.55 2.64,0 4.75,0.85 6.62,2.55 1.87,1.7 2.8,4.03 2.8,7 z M 1431.4,581 H 1416 v -66.57 h 15.4 z"
       id="path51"
       style="fill:#ffb93b;fill-opacity:1" />
    <path
       class="cls-5"
       d="m 1474.16,582.28 c -4.58,-0.09 -8.38,-0.59 -11.39,-1.53 -3.01,-0.93 -5.41,-2.27 -7.19,-4.01 -1.78,-1.74 -3.03,-3.9 -3.75,-6.49 -0.72,-2.59 -1.08,-5.54 -1.08,-8.85 v -76.62 l 15.4,-2.55 v 76.24 c 0,1.87 0.15,3.44 0.45,4.71 0.3,1.27 0.83,2.35 1.59,3.25 0.76,0.89 1.8,1.57 3.12,2.04 1.31,0.47 2.99,0.83 5.03,1.08 l -2.16,12.73 z"
       id="path52"
       style="fill:#ffb93b;fill-opacity:1" />
  </g>
</svg>
