<?xml version="1.0" encoding="utf-8"?>
<!-- Generator: Adobe Illustrator 28.3.0, SVG Export Plug-In . SVG Version: 6.00 Build 0)  -->
<svg version="1.1" id="Layer_1" xmlns="http://www.w3.org/2000/svg" xmlns:xlink="http://www.w3.org/1999/xlink" x="0px" y="0px"
	 viewBox="0 0 890 256" style="enable-background:new 0 0 890 256;" xml:space="preserve">
<style type="text/css">
	.st0{fill:#FFFFFF;}
</style>
<g>
	<path class="st0" d="M127.9,0C57.4,0,0,57.4,0,127.9C0,198.6,57.4,256,127.9,256c70.5,0,128.1-57.4,128.1-128.1
		C256,57.4,198.3,0,127.9,0z M215.3,188.4c-27.9,3.1-58.2,3.8-87.4,3.8c-29.2,0-59.4-0.8-87.6-3.8c-7.9-0.8-12-2.8-13.1-11.3
		c-1.5-16.1-1.5-32.6-1.5-49.2c0-16.4,0-32.8,1.5-48.9c1-8.5,5.1-10.5,13.1-11.3c28.2-3.1,58.4-3.8,87.6-3.8
		c29.2,0,59.4,0.8,87.4,3.8c8.2,0.8,12.3,2.8,13.3,11.3c1.3,16.1,1.3,32.6,1.3,48.9c0,16.7,0,33.1-1.3,49.2
		C227.6,185.5,223.5,187.6,215.3,188.4z"/>
	<path class="st0" d="M76.1,127.9c0-28.2,22.6-51.8,51.8-51.8c29.2,0,51.8,23.6,51.8,51.8c0,28.5-22.5,52-51.8,52
		C98.7,179.9,76.1,156.3,76.1,127.9z"/>
	<path class="st0" d="M825.7,160.1c-17.2,0-31.2-14-31.2-33s14-33,31.2-33c17.2,0,31.2,14,31.2,33S842.9,160.1,825.7,160.1z
		 M685.5,160.1c-16.7,0-30.6-13.2-30.6-33s14-33,30.6-33s30.6,13.4,30.6,33S702.1,160.1,685.5,160.1z M543.8,160.1
		c-17.2,0-31.2-14-31.2-33s14-33,31.2-33c17.2,0,31.2,14,31.2,33S561,160.1,543.8,160.1z M352.5,159.8c-16.9,0-31.2-13.4-31.2-33
		s14.2-33,31.2-33c16.9,0,30.9,13.2,30.9,33C383.4,146.6,369.5,159.8,352.5,159.8z M825.7,62.5c-34.7,0-63.7,27.1-63.7,64.5
		c0,37.3,28.5,64.5,63.7,64.5c35.2,0,63.7-27.1,63.7-64.5C889.4,89.7,860.9,62.5,825.7,62.5z M543.8,62.5
		c-34.7,0-63.7,27.1-63.7,64.5c0,37.3,28.5,64.5,63.7,64.5c35.2,0,63.7-27.1,63.7-64.5C607.5,89.7,579.1,62.5,543.8,62.5z M391,64.7
		c-4,0-6.5,2.4-6.5,6.5v7c-7.3-8.9-20.7-15.6-34.1-15.6c-32.8,0-61,27.9-61,64.5s26.6,61.8,60.2,61.8c15,0,26.6-7,33.3-14.2
		c-0.3,25.5-13.7,37.1-36.8,37.1c-12.4,0-23.9-3.8-37.4-12.4c-3.5-2.4-7.5-1.6-9.4,2.2l-8.1,15.8c-1.9,3.8-1.4,7.3,2.4,9.7
		c16.7,10.7,36.3,16.1,53.2,16.1c44.3,0,68.8-23.9,68.8-79v-93c0-4-2.4-6.5-6.5-6.5L391,64.7L391,64.7z M689.2,62.5
		c-12.9,0-25.5,5.6-33.9,14.2v-57c0-4-2.4-6.5-6.5-6.5H629c-4,0-6.5,2.4-6.5,6.5v163.1c0,4,2.4,6.5,6.5,6.5h18c4,0,6.5-2.4,6.5-6.5
		v-7c7.8,8.9,22.3,15.6,36.5,15.6c31.4,0,58.6-28.5,58.6-64.5C748.6,91,721.2,62.5,689.2,62.5z M445.5,12.3
		c-7.8-3.5-13.2,0-13.2,8.6v161c0,8.6,5.4,12.1,13.2,8.6l10.2-4.6c6.5-3,9.4-7.3,9.4-14.2V31.1c0-7-3-11.3-9.4-14.2L445.5,12.3
		L445.5,12.3z"/>
</g>
</svg>
