<?xml version="1.0" encoding="UTF-8" standalone="no"?>
<!-- Created with Inkscape (http://www.inkscape.org/) -->

<svg
   version="1.1"
   id="svg1"
   width="126.36494"
   height="74.052002"
   viewBox="0 0 126.36494 74.052002"
   xmlns="http://www.w3.org/2000/svg"
   xmlns:svg="http://www.w3.org/2000/svg">
  <defs
     id="defs1" />
  <g
     id="g1"
     transform="translate(-31.305732,-499.69202)">
    <g
       id="group-R5">
      <path
         id="path12"
         d="m 1048.34,902.082 c -48.2,33.18 -106.344,59.34 -170.164,74.977 -15.778,3.722 -31.641,7.242 -48.031,9.613 -0.61,0.117 -1.305,0.129 -1.922,0.238 -23.285,-17.191 -44.715,-36.18 -64.039,-56.558 21.402,3.117 43.207,5.128 65.507,5.91 77.832,2.867 151.848,-9.891 218.649,-34.18"
         style="fill:#ffffff;fill-opacity:1;fill-rule:nonzero;stroke:none"
         transform="matrix(0.13333333,0,0,-0.13333333,0,631.28)" />
      <path
         id="path13"
         d="m 744.313,746.441 c 30.277,22.391 63.421,42.368 99.16,59.258 88.105,41.582 180.337,59.141 267.377,55.34 -74.93,33.07 -160.909,50.481 -251.834,47.172 -44.797,-1.609 -88.075,-8.219 -129.11,-19.07 -20.414,-27.461 -37.316,-57 -50.152,-88.082 19.766,-19.43 41.324,-37.758 64.559,-54.618"
         style="fill:#ffffff;fill-opacity:1;fill-rule:nonzero;stroke:none"
         transform="matrix(0.13333333,0,0,-0.13333333,0,631.28)" />
      <path
         id="path14"
         d="m 651.273,659.77 c 23.895,28.07 51.317,54.121 81.704,77.82 -21.004,15.051 -40.633,31.281 -58.883,48.402 -14.637,-40.043 -22.684,-82.39 -22.821,-126.222"
         style="fill:#ffffff;fill-opacity:1;fill-rule:nonzero;stroke:none"
         transform="matrix(0.13333333,0,0,-0.13333333,0,631.28)" />
      <path
         id="path15"
         d="m 673.676,822.191 c 10.125,21 21.316,41.059 33.429,60.188 -25.82,-7.957 -50.753,-17.488 -74.457,-28.738 11.243,-14.332 23.407,-28.192 36.329,-41.621 1.543,3.421 3.078,6.8 4.699,10.171"
         style="fill:#ffffff;fill-opacity:1;fill-rule:nonzero;stroke:none"
         transform="matrix(0.13333333,0,0,-0.13333333,0,631.28)" />
      <path
         id="path16"
         d="m 1182.53,477.859 c -1.08,0 -2.17,-0.039 -3.27,-0.039 -44.71,0 -77.13,28.602 -77.13,68.051 v 0.879 c 0,37.711 32.49,67.262 73.97,67.262 2.22,0 4.38,-0.09 6.43,-0.192 v 45.309 c -1.93,0.09 -3.92,0.09 -5.91,0.09 -81.22,0 -142.53,-48.668 -142.53,-113.348 v -0.84 c 0,-63.051 62.13,-112.492 141.48,-112.492 2.42,0 4.65,0.07 6.96,0.121 v 45.199"
         style="fill:#ffffff;fill-opacity:1;fill-rule:nonzero;stroke:none"
         transform="matrix(0.13333333,0,0,-0.13333333,0,631.28)" />
      <path
         id="path17"
         d="m 361.18,572.82 c -47.942,10.231 -54.692,15.141 -54.692,30.289 v 0.7 c 0,11.183 12.293,20.07 35.657,20.07 11.925,0 27.5,-3.238 38.394,-7.297 v 48.348 c -10.137,1.73 -25.742,3.75 -37.574,3.75 -56.668,0 -97.074,-27.688 -97.074,-69.52 v -0.691 c 0,-45.727 36.023,-58.59 91.898,-70.449 46.363,-9.911 50.738,-16.469 50.738,-29.329 v -0.64 c 0,-13.531 -15.074,-21.731 -40.023,-21.731 -31.699,0 -52.695,10.871 -77.652,28 l -36.059,-35.941 c 33.277,-24.699 70.52,-36.859 112.512,-36.859 59.847,0 101.82,25.699 101.82,71.468 v 0.641 c 0,40.191 -31.719,57 -87.945,69.191"
         style="fill:#ffffff;fill-opacity:1;fill-rule:nonzero;stroke:none"
         transform="matrix(0.13333333,0,0,-0.13333333,0,631.28)" />
      <path
         id="path18"
         d="m 547.234,635.672 c -62.207,0 -105.687,-44.461 -105.687,-98.383 v -0.719 c 0,-57.82 47.453,-97.66 111.672,-97.66 1.836,0 7.801,0.219 9.64,0.262 v 43.109 c -1.507,-0.09 -7.261,-0.379 -8.863,-0.379 -27.125,0 -46.269,12.7 -52.269,37.039 h 147.464 c 0.352,4.938 0.793,8.098 0.793,13.45 v 0.621 c 0,53.636 -31.375,102.66 -102.75,102.66 M 500.949,552.43 c 4.793,24.359 21.156,40.23 46.285,40.23 25.504,0 41.461,-16.238 45.063,-40.23 h -91.348"
         style="fill:#ffffff;fill-opacity:1;fill-rule:nonzero;stroke:none"
         transform="matrix(0.13333333,0,0,-0.13333333,0,631.28)" />
      <path
         id="path19"
         d="m 842.324,542.441 c 0,51.129 -31.258,91.059 -97.414,91.059 -66.23,0 -97.488,-39.93 -97.488,-91.059 V 442.352 h 61.262 V 546.16 c 1.117,18.91 8.558,41.25 36.226,41.25 27.567,0 35.641,-22.34 36.723,-41.25 V 442.352 h 60.691 v 100.089"
         style="fill:#ffffff;fill-opacity:1;fill-rule:nonzero;stroke:none"
         transform="matrix(0.13333333,0,0,-0.13333333,0,631.28)" />
      <path
         id="path20"
         d="m 979.195,509.641 c -5.277,-27.621 -33.797,-31.782 -40.277,-32.102 -46.105,-2.457 -47.762,29.109 -32.254,38.711 20.875,12.91 72.734,5.68 72.734,5.68 0,-1.899 0.461,-6.61 -0.203,-12.289 m -37.242,124.961 c -2.683,0 -11.941,-0.051 -14.488,-0.122 v -45.738 c 11.805,-0.082 27.992,-2.113 35.183,-5.863 10.582,-5.609 16.063,-15.008 16.368,-27.699 -14.473,1.672 -30.84,2.808 -45.039,3.191 -57.891,1.527 -86.497,-17.66 -92.2,-48.301 -0.144,-0.57 -0.238,-1.14 -0.355,-1.738 -0.027,-0.18 -0.035,-0.383 -0.07,-0.57 -0.454,-2.953 -0.715,-6.012 -0.715,-9.242 v -0.688 c 0,-37.441 33.125,-57.922 73.347,-57.922 29.539,0 49.883,9.602 64.598,24.02 v -21.77 h 58.658 v 110.992 c 0,51.168 -29.13,81.45 -95.287,81.45"
         style="fill:#ffffff;fill-opacity:1;fill-rule:nonzero;stroke:none"
         transform="matrix(0.13333333,0,0,-0.13333333,0,631.28)" />
    </g>
  </g>
</svg>
